<?xml version="1.0" encoding="UTF-8" standalone="no"?><svg xmlns="http://www.w3.org/2000/svg" xmlns:xlink="http://www.w3.org/1999/xlink" contentScriptType="application/ecmascript" contentStyleType="text/css" height="922px" preserveAspectRatio="none" style="width:797px;height:922px;" version="1.1" viewBox="0 0 797 922" width="797px" zoomAndPan="magnify"><defs><filter height="300%" id="fyjbp52q07hi2" width="300%" x="-1" y="-1"><feGaussianBlur result="blurOut" stdDeviation="2.0"/><feColorMatrix in="blurOut" result="blurOut2" type="matrix" values="0 0 0 0 0 0 0 0 0 0 0 0 0 0 0 0 0 0 .4 0"/><feOffset dx="4.0" dy="4.0" in="blurOut2" result="blurOut3"/><feBlend in="SourceGraphic" in2="blurOut3" mode="normal"/></filter></defs><g><!--class Region--><rect fill="#FEFECE" filter="url(#fyjbp52q07hi2)" height="73.9102" id="Region" style="stroke: #A80036; stroke-width: 1.5;" width="129" x="591.5" y="302"/><ellipse cx="632.6" cy="318" fill="#ADD1B2" rx="11" ry="11" style="stroke: #A80036; stroke-width: 1.0;"/><path d="M635.0731,324.1431 Q634.4921,324.4419 633.8529,324.5913 Q633.2138,324.7407 632.5082,324.7407 Q630.0014,324.7407 628.6815,323.0889 Q627.3617,321.437 627.3617,318.3159 Q627.3617,315.1865 628.6815,313.5347 Q630.0014,311.8828 632.5082,311.8828 Q633.2138,311.8828 633.8612,312.0322 Q634.5087,312.1816 635.0731,312.4805 L635.0731,315.2031 Q634.4423,314.6221 633.8488,314.3523 Q633.2553,314.0825 632.6244,314.0825 Q631.2797,314.0825 630.5949,315.1492 Q629.9101,316.2158 629.9101,318.3159 Q629.9101,320.4077 630.5949,321.4744 Q631.2797,322.541 632.6244,322.541 Q633.2553,322.541 633.8488,322.2712 Q634.4423,322.0015 635.0731,321.4204 Z "/><text fill="#000000" font-family="sans-serif" font-size="12" lengthAdjust="spacingAndGlyphs" textLength="39" x="652.4" y="322.5352">Region</text><line style="stroke: #A80036; stroke-width: 1.5;" x1="592.5" x2="719.5" y1="334" y2="334"/><ellipse cx="602.5" cy="345.9775" fill="none" rx="3" ry="3" style="stroke: #038048; stroke-width: 1.0;"/><text fill="#000000" font-family="sans-serif" font-size="11" lengthAdjust="spacingAndGlyphs" textLength="101" x="611.5" y="348.6348">regionCode: String</text><ellipse cx="602.5" cy="358.9326" fill="none" rx="3" ry="3" style="stroke: #038048; stroke-width: 1.0;"/><text fill="#000000" font-family="sans-serif" font-size="11" lengthAdjust="spacingAndGlyphs" textLength="103" x="611.5" y="361.5898">regionName: String</text><line style="stroke: #A80036; stroke-width: 1.5;" x1="592.5" x2="719.5" y1="367.9102" y2="367.9102"/><!--class CustomerRegion--><rect fill="#FEFECE" filter="url(#fyjbp52q07hi2)" height="73.9102" id="CustomerRegion" style="stroke: #A80036; stroke-width: 1.5;" width="216" x="570" y="462"/><ellipse cx="626.75" cy="478" fill="#ADD1B2" rx="11" ry="11" style="stroke: #A80036; stroke-width: 1.0;"/><path d="M629.2231,484.1431 Q628.6421,484.4419 628.0029,484.5913 Q627.3638,484.7407 626.6582,484.7407 Q624.1514,484.7407 622.8315,483.0889 Q621.5117,481.437 621.5117,478.3159 Q621.5117,475.1865 622.8315,473.5347 Q624.1514,471.8828 626.6582,471.8828 Q627.3638,471.8828 628.0112,472.0322 Q628.6587,472.1816 629.2231,472.4805 L629.2231,475.2031 Q628.5923,474.6221 627.9988,474.3523 Q627.4053,474.0825 626.7744,474.0825 Q625.4297,474.0825 624.7449,475.1492 Q624.0601,476.2158 624.0601,478.3159 Q624.0601,480.4077 624.7449,481.4744 Q625.4297,482.541 626.7744,482.541 Q627.4053,482.541 627.9988,482.2712 Q628.5923,482.0015 629.2231,481.4204 Z "/><text fill="#000000" font-family="sans-serif" font-size="12" lengthAdjust="spacingAndGlyphs" textLength="94" x="647.25" y="482.5352">CustomerRegion</text><line style="stroke: #A80036; stroke-width: 1.5;" x1="571" x2="785" y1="494" y2="494"/><ellipse cx="581" cy="505.9775" fill="none" rx="3" ry="3" style="stroke: #038048; stroke-width: 1.0;"/><text fill="#000000" font-family="sans-serif" font-size="11" lengthAdjust="spacingAndGlyphs" textLength="162" x="590" y="508.6348">status: CustomerRegionStatus</text><ellipse cx="581" cy="518.9326" fill="none" rx="3" ry="3" style="stroke: #038048; stroke-width: 1.0;"/><text fill="#000000" font-family="sans-serif" font-size="11" lengthAdjust="spacingAndGlyphs" textLength="190" x="590" y="521.5898">kycStatusMap: [KycType, KycStatus]</text><line style="stroke: #A80036; stroke-width: 1.5;" x1="571" x2="785" y1="527.9102" y2="527.9102"/><!--class Customer--><rect fill="#FEFECE" filter="url(#fyjbp52q07hi2)" height="125.7305" id="Customer" style="stroke: #A80036; stroke-width: 1.5;" width="197" x="298.5" y="276"/><ellipse cx="365.25" cy="292" fill="#ADD1B2" rx="11" ry="11" style="stroke: #A80036; stroke-width: 1.0;"/><path d="M367.7231,298.1431 Q367.1421,298.4419 366.5029,298.5913 Q365.8638,298.7407 365.1582,298.7407 Q362.6514,298.7407 361.3315,297.0889 Q360.0117,295.437 360.0117,292.3159 Q360.0117,289.1865 361.3315,287.5347 Q362.6514,285.8828 365.1582,285.8828 Q365.8638,285.8828 366.5112,286.0322 Q367.1587,286.1816 367.7231,286.4805 L367.7231,289.2031 Q367.0923,288.6221 366.4988,288.3523 Q365.9053,288.0825 365.2744,288.0825 Q363.9297,288.0825 363.2449,289.1492 Q362.5601,290.2158 362.5601,292.3159 Q362.5601,294.4077 363.2449,295.4744 Q363.9297,296.541 365.2744,296.541 Q365.9053,296.541 366.4988,296.2712 Q367.0923,296.0015 367.7231,295.4204 Z "/><text fill="#000000" font-family="sans-serif" font-size="12" lengthAdjust="spacingAndGlyphs" textLength="55" x="385.75" y="296.5352">Customer</text><line style="stroke: #A80036; stroke-width: 1.5;" x1="299.5" x2="494.5" y1="308" y2="308"/><ellipse cx="309.5" cy="319.9775" fill="none" rx="3" ry="3" style="stroke: #038048; stroke-width: 1.0;"/><text fill="#000000" font-family="sans-serif" font-size="11" lengthAdjust="spacingAndGlyphs" textLength="94" x="318.5" y="322.6348">customerId: UUID</text><ellipse cx="309.5" cy="332.9326" fill="none" rx="3" ry="3" style="stroke: #038048; stroke-width: 1.0;"/><text fill="#000000" font-family="sans-serif" font-size="11" lengthAdjust="spacingAndGlyphs" textLength="89" x="318.5" y="335.5898">nickname: String</text><ellipse cx="309.5" cy="345.8877" fill="none" rx="3" ry="3" style="stroke: #038048; stroke-width: 1.0;"/><text fill="#000000" font-family="sans-serif" font-size="11" lengthAdjust="spacingAndGlyphs" textLength="102" x="318.5" y="348.5449">contactEmail: Email</text><ellipse cx="309.5" cy="358.8428" fill="none" rx="3" ry="3" style="stroke: #038048; stroke-width: 1.0;"/><text fill="#000000" font-family="sans-serif" font-size="11" lengthAdjust="spacingAndGlyphs" textLength="90" x="318.5" y="361.5">analyticsId: UUID</text><ellipse cx="309.5" cy="371.7979" fill="none" rx="3" ry="3" style="stroke: #038048; stroke-width: 1.0;"/><text fill="#000000" font-family="sans-serif" font-size="11" lengthAdjust="spacingAndGlyphs" textLength="83" x="318.5" y="374.4551">referralId: UUID</text><line style="stroke: #A80036; stroke-width: 1.0;" x1="299.5" x2="494.5" y1="380.7754" y2="380.7754"/><text fill="#000000" font-family="sans-serif" font-size="11" lengthAdjust="spacingAndGlyphs" textLength="185" x="304.5" y="395.4102">getAvailableProducts():[ProductID]</text><!--class Bundle--><rect fill="#FEFECE" filter="url(#fyjbp52q07hi2)" height="60.9551" id="Bundle" style="stroke: #A80036; stroke-width: 1.5;" width="100" x="6" y="468.5"/><ellipse cx="34.05" cy="484.5" fill="#ADD1B2" rx="11" ry="11" style="stroke: #A80036; stroke-width: 1.0;"/><path d="M36.5231,490.6431 Q35.9421,490.9419 35.3029,491.0913 Q34.6638,491.2407 33.9582,491.2407 Q31.4514,491.2407 30.1315,489.5889 Q28.8117,487.937 28.8117,484.8159 Q28.8117,481.6865 30.1315,480.0347 Q31.4514,478.3828 33.9582,478.3828 Q34.6638,478.3828 35.3112,478.5322 Q35.9587,478.6816 36.5231,478.9805 L36.5231,481.7031 Q35.8923,481.1221 35.2988,480.8523 Q34.7053,480.5825 34.0744,480.5825 Q32.7297,480.5825 32.0449,481.6492 Q31.3601,482.7158 31.3601,484.8159 Q31.3601,486.9077 32.0449,487.9744 Q32.7297,489.041 34.0744,489.041 Q34.7053,489.041 35.2988,488.7712 Q35.8923,488.5015 36.5231,487.9204 Z "/><text fill="#000000" font-family="sans-serif" font-size="12" lengthAdjust="spacingAndGlyphs" textLength="39" x="50.95" y="489.0352">Bundle</text><line style="stroke: #A80036; stroke-width: 1.5;" x1="7" x2="105" y1="500.5" y2="500.5"/><ellipse cx="17" cy="512.4775" fill="none" rx="3" ry="3" style="stroke: #038048; stroke-width: 1.0;"/><text fill="#000000" font-family="sans-serif" font-size="11" lengthAdjust="spacingAndGlyphs" textLength="74" x="26" y="515.1348">balance: Long</text><line style="stroke: #A80036; stroke-width: 1.5;" x1="7" x2="105" y1="521.4551" y2="521.4551"/><!--class SimProfile--><rect fill="#FEFECE" filter="url(#fyjbp52q07hi2)" height="86.8652" id="SimProfile" style="stroke: #A80036; stroke-width: 1.5;" width="97" x="400.5" y="8"/><ellipse cx="419.55" cy="24" fill="#ADD1B2" rx="11" ry="11" style="stroke: #A80036; stroke-width: 1.0;"/><path d="M422.0231,30.1431 Q421.4421,30.4419 420.8029,30.5913 Q420.1638,30.7407 419.4582,30.7407 Q416.9514,30.7407 415.6315,29.0889 Q414.3117,27.437 414.3117,24.3159 Q414.3117,21.1865 415.6315,19.5347 Q416.9514,17.8828 419.4582,17.8828 Q420.1638,17.8828 420.8112,18.0322 Q421.4587,18.1816 422.0231,18.4805 L422.0231,21.2031 Q421.3923,20.6221 420.7988,20.3523 Q420.2053,20.0825 419.5744,20.0825 Q418.2297,20.0825 417.5449,21.1492 Q416.8601,22.2158 416.8601,24.3159 Q416.8601,26.4077 417.5449,27.4744 Q418.2297,28.541 419.5744,28.541 Q420.2053,28.541 420.7988,28.2712 Q421.3923,28.0015 422.0231,27.4204 Z "/><text fill="#000000" font-family="sans-serif" font-size="12" lengthAdjust="spacingAndGlyphs" textLength="56" x="434.45" y="28.5352">SimProfile</text><line style="stroke: #A80036; stroke-width: 1.5;" x1="401.5" x2="496.5" y1="40" y2="40"/><ellipse cx="411.5" cy="51.9775" fill="none" rx="3" ry="3" style="stroke: #038048; stroke-width: 1.0;"/><text fill="#000000" font-family="sans-serif" font-size="11" lengthAdjust="spacingAndGlyphs" textLength="68" x="420.5" y="54.6348">ICCID: String</text><ellipse cx="411.5" cy="64.9326" fill="none" rx="3" ry="3" style="stroke: #038048; stroke-width: 1.0;"/><text fill="#000000" font-family="sans-serif" font-size="11" lengthAdjust="spacingAndGlyphs" textLength="71" x="420.5" y="67.5898">status: String</text><ellipse cx="411.5" cy="77.8877" fill="none" rx="3" ry="3" style="stroke: #038048; stroke-width: 1.0;"/><text fill="#000000" font-family="sans-serif" font-size="11" lengthAdjust="spacingAndGlyphs" textLength="62" x="420.5" y="80.5449">alias: String</text><line style="stroke: #A80036; stroke-width: 1.5;" x1="401.5" x2="496.5" y1="86.8652" y2="86.8652"/><!--class Subscription--><rect fill="#FEFECE" filter="url(#fyjbp52q07hi2)" height="60.9551" id="Subscription" style="stroke: #A80036; stroke-width: 1.5;" width="104" x="345" y="155"/><ellipse cx="360.9" cy="171" fill="#ADD1B2" rx="11" ry="11" style="stroke: #A80036; stroke-width: 1.0;"/><path d="M363.3731,177.1431 Q362.7921,177.4419 362.1529,177.5913 Q361.5138,177.7407 360.8082,177.7407 Q358.3014,177.7407 356.9815,176.0889 Q355.6617,174.437 355.6617,171.3159 Q355.6617,168.1865 356.9815,166.5347 Q358.3014,164.8828 360.8082,164.8828 Q361.5138,164.8828 362.1612,165.0322 Q362.8087,165.1816 363.3731,165.4805 L363.3731,168.2031 Q362.7423,167.6221 362.1488,167.3523 Q361.5553,167.0825 360.9244,167.0825 Q359.5797,167.0825 358.8949,168.1492 Q358.2101,169.2158 358.2101,171.3159 Q358.2101,173.4077 358.8949,174.4744 Q359.5797,175.541 360.9244,175.541 Q361.5553,175.541 362.1488,175.2712 Q362.7423,175.0015 363.3731,174.4204 Z "/><text fill="#000000" font-family="sans-serif" font-size="12" lengthAdjust="spacingAndGlyphs" textLength="70" x="375.1" y="175.5352">Subscription</text><line style="stroke: #A80036; stroke-width: 1.5;" x1="346" x2="448" y1="187" y2="187"/><ellipse cx="356" cy="198.9775" fill="none" rx="3" ry="3" style="stroke: #038048; stroke-width: 1.0;"/><text fill="#000000" font-family="sans-serif" font-size="11" lengthAdjust="spacingAndGlyphs" textLength="78" x="365" y="201.6348">MSISDN: String</text><line style="stroke: #A80036; stroke-width: 1.5;" x1="346" x2="448" y1="207.9551" y2="207.9551"/><!--class Segment--><rect fill="#FEFECE" filter="url(#fyjbp52q07hi2)" height="48" id="Segment" style="stroke: #A80036; stroke-width: 1.5;" width="81" x="334.5" y="475"/><ellipse cx="349.5" cy="491" fill="#ADD1B2" rx="11" ry="11" style="stroke: #A80036; stroke-width: 1.0;"/><path d="M351.9731,497.1431 Q351.3921,497.4419 350.7529,497.5913 Q350.1138,497.7407 349.4082,497.7407 Q346.9014,497.7407 345.5815,496.0889 Q344.2617,494.437 344.2617,491.3159 Q344.2617,488.1865 345.5815,486.5347 Q346.9014,484.8828 349.4082,484.8828 Q350.1138,484.8828 350.7612,485.0322 Q351.4087,485.1816 351.9731,485.4805 L351.9731,488.2031 Q351.3423,487.6221 350.7488,487.3523 Q350.1553,487.0825 349.5244,487.0825 Q348.1797,487.0825 347.4949,488.1492 Q346.8101,489.2158 346.8101,491.3159 Q346.8101,493.4077 347.4949,494.4744 Q348.1797,495.541 349.5244,495.541 Q350.1553,495.541 350.7488,495.2712 Q351.3423,495.0015 351.9731,494.4204 Z "/><text fill="#000000" font-family="sans-serif" font-size="12" lengthAdjust="spacingAndGlyphs" textLength="49" x="363.5" y="495.5352">Segment</text><line style="stroke: #A80036; stroke-width: 1.5;" x1="335.5" x2="414.5" y1="507" y2="507"/><line style="stroke: #A80036; stroke-width: 1.5;" x1="335.5" x2="414.5" y1="515" y2="515"/><path d="M141,486.5 L141,511.8105 A0,0 0 0 0 141,511.8105 L299,511.8105 A0,0 0 0 0 299,511.8105 L299,504.5 L334.3354,499 L299,496.5 L299,496.5 L289,486.5 L141,486.5 A0,0 0 0 0 141,486.5 " fill="#FBFB77" filter="url(#fyjbp52q07hi2)" style="stroke: #A80036; stroke-width: 1.0;"/><path d="M289,486.5 L289,496.5 L299,496.5 L289,486.5 " fill="#FBFB77" style="stroke: #A80036; stroke-width: 1.0;"/><text fill="#000000" font-family="sans-serif" font-size="13" lengthAdjust="spacingAndGlyphs" textLength="137" x="147" y="504.0684">Visible to Admin Only</text><!--class Offer--><rect fill="#FEFECE" filter="url(#fyjbp52q07hi2)" height="48" id="Offer" style="stroke: #A80036; stroke-width: 1.5;" width="61" x="344.5" y="596"/><ellipse cx="359.5" cy="612" fill="#ADD1B2" rx="11" ry="11" style="stroke: #A80036; stroke-width: 1.0;"/><path d="M361.9731,618.1431 Q361.3921,618.4419 360.7529,618.5913 Q360.1138,618.7407 359.4082,618.7407 Q356.9014,618.7407 355.5815,617.0889 Q354.2617,615.437 354.2617,612.3159 Q354.2617,609.1865 355.5815,607.5347 Q356.9014,605.8828 359.4082,605.8828 Q360.1138,605.8828 360.7612,606.0322 Q361.4087,606.1816 361.9731,606.4805 L361.9731,609.2031 Q361.3423,608.6221 360.7488,608.3523 Q360.1553,608.0825 359.5244,608.0825 Q358.1797,608.0825 357.4949,609.1492 Q356.8101,610.2158 356.8101,612.3159 Q356.8101,614.4077 357.4949,615.4744 Q358.1797,616.541 359.5244,616.541 Q360.1553,616.541 360.7488,616.2712 Q361.3423,616.0015 361.9731,615.4204 Z "/><text fill="#000000" font-family="sans-serif" font-size="12" lengthAdjust="spacingAndGlyphs" textLength="29" x="373.5" y="616.5352">Offer</text><line style="stroke: #A80036; stroke-width: 1.5;" x1="345.5" x2="404.5" y1="628" y2="628"/><line style="stroke: #A80036; stroke-width: 1.5;" x1="345.5" x2="404.5" y1="636" y2="636"/><path d="M151,607.5 L151,632.8105 A0,0 0 0 0 151,632.8105 L309,632.8105 A0,0 0 0 0 309,632.8105 L309,625.5 L344.3267,620 L309,617.5 L309,617.5 L299,607.5 L151,607.5 A0,0 0 0 0 151,607.5 " fill="#FBFB77" filter="url(#fyjbp52q07hi2)" style="stroke: #A80036; stroke-width: 1.0;"/><path d="M299,607.5 L299,617.5 L309,617.5 L299,607.5 " fill="#FBFB77" style="stroke: #A80036; stroke-width: 1.0;"/><text fill="#000000" font-family="sans-serif" font-size="13" lengthAdjust="spacingAndGlyphs" textLength="137" x="157" y="625.0684">Visible to Admin Only</text><!--class ProductClass--><rect fill="#FEFECE" filter="url(#fyjbp52q07hi2)" height="73.9102" id="ProductClass" style="stroke: #A80036; stroke-width: 1.5;" width="106" x="292" y="838"/><ellipse cx="307" cy="854" fill="#ADD1B2" rx="11" ry="11" style="stroke: #A80036; stroke-width: 1.0;"/><path d="M309.4731,860.1431 Q308.8921,860.4419 308.2529,860.5913 Q307.6138,860.7407 306.9082,860.7407 Q304.4014,860.7407 303.0815,859.0889 Q301.7617,857.437 301.7617,854.3159 Q301.7617,851.1865 303.0815,849.5347 Q304.4014,847.8828 306.9082,847.8828 Q307.6138,847.8828 308.2612,848.0322 Q308.9087,848.1816 309.4731,848.4805 L309.4731,851.2031 Q308.8423,850.6221 308.2488,850.3523 Q307.6553,850.0825 307.0244,850.0825 Q305.6797,850.0825 304.9949,851.1492 Q304.3101,852.2158 304.3101,854.3159 Q304.3101,856.4077 304.9949,857.4744 Q305.6797,858.541 307.0244,858.541 Q307.6553,858.541 308.2488,858.2712 Q308.8423,858.0015 309.4731,857.4204 Z "/><text fill="#000000" font-family="sans-serif" font-size="12" lengthAdjust="spacingAndGlyphs" textLength="74" x="321" y="858.5352">ProductClass</text><line style="stroke: #A80036; stroke-width: 1.5;" x1="293" x2="397" y1="870" y2="870"/><ellipse cx="303" cy="881.9775" fill="none" rx="3" ry="3" style="stroke: #038048; stroke-width: 1.0;"/><text fill="#000000" font-family="sans-serif" font-size="11" lengthAdjust="spacingAndGlyphs" textLength="43" x="312" y="884.6348">id: UUID</text><ellipse cx="303" cy="894.9326" fill="none" rx="3" ry="3" style="stroke: #038048; stroke-width: 1.0;"/><text fill="#000000" font-family="sans-serif" font-size="11" lengthAdjust="spacingAndGlyphs" textLength="62" x="312" y="897.5898">path: String</text><line style="stroke: #A80036; stroke-width: 1.5;" x1="293" x2="397" y1="903.9102" y2="903.9102"/><!--class Price--><rect fill="#FEFECE" filter="url(#fyjbp52q07hi2)" height="73.9102" id="Price" style="stroke: #A80036; stroke-width: 1.5;" width="112" x="433" y="838"/><ellipse cx="471.4" cy="854" fill="#ADD1B2" rx="11" ry="11" style="stroke: #A80036; stroke-width: 1.0;"/><path d="M473.8731,860.1431 Q473.2921,860.4419 472.6529,860.5913 Q472.0138,860.7407 471.3082,860.7407 Q468.8014,860.7407 467.4815,859.0889 Q466.1617,857.437 466.1617,854.3159 Q466.1617,851.1865 467.4815,849.5347 Q468.8014,847.8828 471.3082,847.8828 Q472.0138,847.8828 472.6612,848.0322 Q473.3087,848.1816 473.8731,848.4805 L473.8731,851.2031 Q473.2423,850.6221 472.6488,850.3523 Q472.0553,850.0825 471.4244,850.0825 Q470.0797,850.0825 469.3949,851.1492 Q468.7101,852.2158 468.7101,854.3159 Q468.7101,856.4077 469.3949,857.4744 Q470.0797,858.541 471.4244,858.541 Q472.0553,858.541 472.6488,858.2712 Q473.2423,858.0015 473.8731,857.4204 Z "/><text fill="#000000" font-family="sans-serif" font-size="12" lengthAdjust="spacingAndGlyphs" textLength="28" x="490.6" y="858.5352">Price</text><line style="stroke: #A80036; stroke-width: 1.5;" x1="434" x2="544" y1="870" y2="870"/><ellipse cx="444" cy="881.9775" fill="none" rx="3" ry="3" style="stroke: #038048; stroke-width: 1.0;"/><text fill="#000000" font-family="sans-serif" font-size="11" lengthAdjust="spacingAndGlyphs" textLength="86" x="453" y="884.6348">currency: String</text><ellipse cx="444" cy="894.9326" fill="none" rx="3" ry="3" style="stroke: #038048; stroke-width: 1.0;"/><text fill="#000000" font-family="sans-serif" font-size="11" lengthAdjust="spacingAndGlyphs" textLength="61" x="453" y="897.5898">amount: Int</text><line style="stroke: #A80036; stroke-width: 1.5;" x1="434" x2="544" y1="903.9102" y2="903.9102"/><!--class Product--><rect fill="#FEFECE" filter="url(#fyjbp52q07hi2)" height="73.9102" id="Product" style="stroke: #A80036; stroke-width: 1.5;" width="85" x="374.5" y="704"/><ellipse cx="393.55" cy="720" fill="#ADD1B2" rx="11" ry="11" style="stroke: #A80036; stroke-width: 1.0;"/><path d="M396.0231,726.1431 Q395.4421,726.4419 394.8029,726.5913 Q394.1638,726.7407 393.4582,726.7407 Q390.9514,726.7407 389.6315,725.0889 Q388.3117,723.437 388.3117,720.3159 Q388.3117,717.1865 389.6315,715.5347 Q390.9514,713.8828 393.4582,713.8828 Q394.1638,713.8828 394.8112,714.0322 Q395.4587,714.1816 396.0231,714.4805 L396.0231,717.2031 Q395.3923,716.6221 394.7988,716.3523 Q394.2053,716.0825 393.5744,716.0825 Q392.2297,716.0825 391.5449,717.1492 Q390.8601,718.2158 390.8601,720.3159 Q390.8601,722.4077 391.5449,723.4744 Q392.2297,724.541 393.5744,724.541 Q394.2053,724.541 394.7988,724.2712 Q395.3923,724.0015 396.0231,723.4204 Z "/><text fill="#000000" font-family="sans-serif" font-size="12" lengthAdjust="spacingAndGlyphs" textLength="44" x="408.45" y="724.5352">Product</text><line style="stroke: #A80036; stroke-width: 1.5;" x1="375.5" x2="458.5" y1="736" y2="736"/><ellipse cx="385.5" cy="747.9775" fill="none" rx="3" ry="3" style="stroke: #038048; stroke-width: 1.0;"/><text fill="#000000" font-family="sans-serif" font-size="11" lengthAdjust="spacingAndGlyphs" textLength="54" x="394.5" y="750.6348">SKU: UUID</text><ellipse cx="385.5" cy="760.9326" fill="none" rx="3" ry="3" style="stroke: #038048; stroke-width: 1.0;"/><text fill="#000000" font-family="sans-serif" font-size="11" lengthAdjust="spacingAndGlyphs" textLength="59" x="394.5" y="763.5898">price: Price</text><line style="stroke: #A80036; stroke-width: 1.5;" x1="375.5" x2="458.5" y1="769.9102" y2="769.9102"/><!--class Purchase--><rect fill="#FEFECE" filter="url(#fyjbp52q07hi2)" height="48" id="Purchase" style="stroke: #A80036; stroke-width: 1.5;" width="84" x="451" y="475"/><ellipse cx="466" cy="491" fill="#ADD1B2" rx="11" ry="11" style="stroke: #A80036; stroke-width: 1.0;"/><path d="M468.4731,497.1431 Q467.8921,497.4419 467.2529,497.5913 Q466.6138,497.7407 465.9082,497.7407 Q463.4014,497.7407 462.0815,496.0889 Q460.7617,494.437 460.7617,491.3159 Q460.7617,488.1865 462.0815,486.5347 Q463.4014,484.8828 465.9082,484.8828 Q466.6138,484.8828 467.2612,485.0322 Q467.9087,485.1816 468.4731,485.4805 L468.4731,488.2031 Q467.8423,487.6221 467.2488,487.3523 Q466.6553,487.0825 466.0244,487.0825 Q464.6797,487.0825 463.9949,488.1492 Q463.3101,489.2158 463.3101,491.3159 Q463.3101,493.4077 463.9949,494.4744 Q464.6797,495.541 466.0244,495.541 Q466.6553,495.541 467.2488,495.2712 Q467.8423,495.0015 468.4731,494.4204 Z "/><text fill="#000000" font-family="sans-serif" font-size="12" lengthAdjust="spacingAndGlyphs" textLength="52" x="480" y="495.5352">Purchase</text><line style="stroke: #A80036; stroke-width: 1.5;" x1="452" x2="534" y1="507" y2="507"/><line style="stroke: #A80036; stroke-width: 1.5;" x1="452" x2="534" y1="515" y2="515"/><!--class Payment--><rect fill="#FEFECE" filter="url(#fyjbp52q07hi2)" height="48" id="Payment" style="stroke: #A80036; stroke-width: 1.5;" width="81" x="512.5" y="596"/><ellipse cx="527.5" cy="612" fill="#ADD1B2" rx="11" ry="11" style="stroke: #A80036; stroke-width: 1.0;"/><path d="M529.9731,618.1431 Q529.3921,618.4419 528.7529,618.5913 Q528.1138,618.7407 527.4082,618.7407 Q524.9014,618.7407 523.5815,617.0889 Q522.2617,615.437 522.2617,612.3159 Q522.2617,609.1865 523.5815,607.5347 Q524.9014,605.8828 527.4082,605.8828 Q528.1138,605.8828 528.7612,606.0322 Q529.4087,606.1816 529.9731,606.4805 L529.9731,609.2031 Q529.3423,608.6221 528.7488,608.3523 Q528.1553,608.0825 527.5244,608.0825 Q526.1797,608.0825 525.4949,609.1492 Q524.8101,610.2158 524.8101,612.3159 Q524.8101,614.4077 525.4949,615.4744 Q526.1797,616.541 527.5244,616.541 Q528.1553,616.541 528.7488,616.2712 Q529.3423,616.0015 529.9731,615.4204 Z "/><text fill="#000000" font-family="sans-serif" font-size="12" lengthAdjust="spacingAndGlyphs" textLength="49" x="541.5" y="616.5352">Payment</text><line style="stroke: #A80036; stroke-width: 1.5;" x1="513.5" x2="592.5" y1="628" y2="628"/><line style="stroke: #A80036; stroke-width: 1.5;" x1="513.5" x2="592.5" y1="636" y2="636"/><!--link Customer to Customer--><path d="M495.6796,311.5441 C515.9524,314.4848 530.5,323.6367 530.5,339 C530.5,354.3633 515.9524,363.5152 495.6796,366.4559 " fill="none" id="Customer-Customer" style="stroke: #A80036; stroke-width: 1.0;"/><text fill="#000000" font-family="sans-serif" font-size="13" lengthAdjust="spacingAndGlyphs" textLength="8" x="503.541" y="306.4584">1</text><text fill="#000000" font-family="sans-serif" font-size="13" lengthAdjust="spacingAndGlyphs" textLength="6" x="503.4644" y="365.5743">*</text><!--link Customer to CustomerRegion--><path d="M495.675,395.185 C534.5773,417.3358 578.1866,442.1668 612.9993,461.9889 " fill="none" id="Customer-CustomerRegion" style="stroke: #A80036; stroke-width: 1.0;"/><text fill="#000000" font-family="sans-serif" font-size="13" lengthAdjust="spacingAndGlyphs" textLength="8" x="503.5361" y="396.503">1</text><text fill="#000000" font-family="sans-serif" font-size="13" lengthAdjust="spacingAndGlyphs" textLength="6" x="594.4617" y="451.3874">*</text><!--link Region to CustomerRegion--><path d="M661.1025,376.1094 C664.644,401.8654 669.3434,436.0425 672.8871,461.8151 " fill="none" id="Region-CustomerRegion" style="stroke: #A80036; stroke-width: 1.0;"/><text fill="#000000" font-family="sans-serif" font-size="13" lengthAdjust="spacingAndGlyphs" textLength="8" x="653.292" y="396.3794">1</text><text fill="#000000" font-family="sans-serif" font-size="13" lengthAdjust="spacingAndGlyphs" textLength="6" x="665.3913" y="451.1816">*</text><!--link Customer to Bundle--><path d="M298.4361,380.895 C245.87,403.8264 180.3758,433.3405 123,462 C117.5318,464.7314 111.8655,467.6758 106.2488,470.6685 " fill="none" id="Customer-Bundle" style="stroke: #A80036; stroke-width: 1.0;"/><text fill="#000000" font-family="sans-serif" font-size="13" lengthAdjust="spacingAndGlyphs" textLength="8" x="282.5836" y="381.1189">1</text><text fill="#000000" font-family="sans-serif" font-size="13" lengthAdjust="spacingAndGlyphs" textLength="6" x="114.0697" y="463.0002">*</text><!--link SimProfile to Region--><path d="M480.4388,95.1651 C521.042,151.5584 591.0188,248.7484 629.2151,301.7988 " fill="none" id="SimProfile-Region" style="stroke: #A80036; stroke-width: 1.0;"/><text fill="#000000" font-family="sans-serif" font-size="13" lengthAdjust="spacingAndGlyphs" textLength="6" x="478.6157" y="115.281">*</text><text fill="#000000" font-family="sans-serif" font-size="13" lengthAdjust="spacingAndGlyphs" textLength="8" x="615.5391" y="291.1623">1</text><!--link SimProfile to Subscription--><path d="M432.1171,95.006 C424.5253,114.5695 415.746,137.193 408.8647,154.9257 " fill="none" id="SimProfile-Subscription" style="stroke: #A80036; stroke-width: 1.0;"/><text fill="#000000" font-family="sans-serif" font-size="13" lengthAdjust="spacingAndGlyphs" textLength="8" x="420.9194" y="115.4187">1</text><text fill="#000000" font-family="sans-serif" font-size="13" lengthAdjust="spacingAndGlyphs" textLength="6" x="404.8039" y="144.2042">*</text><!--link Subscription to Customer--><path d="M397,216.1941 C397,233.2548 397,255.1335 397,275.6855 " fill="none" id="Subscription-Customer" style="stroke: #A80036; stroke-width: 1.0;"/><text fill="#000000" font-family="sans-serif" font-size="13" lengthAdjust="spacingAndGlyphs" textLength="6" x="390.3813" y="236.6767">*</text><text fill="#000000" font-family="sans-serif" font-size="13" lengthAdjust="spacingAndGlyphs" textLength="8" x="388.5375" y="265.0995">1</text><!--link Subscription to Bundle--><path d="M355.2459,216.1797 C332.7346,233.187 304.7758,255.074 281,276 C207.1004,341.042 126.5407,424.153 84.7647,468.2652 " fill="none" id="Subscription-Bundle" style="stroke: #A80036; stroke-width: 1.0;"/><text fill="#000000" font-family="sans-serif" font-size="13" lengthAdjust="spacingAndGlyphs" textLength="6" x="340.0154" y="236.6593">*</text><text fill="#000000" font-family="sans-serif" font-size="13" lengthAdjust="spacingAndGlyphs" textLength="6" x="84.0787" y="457.9843">*</text><!--link Customer to Segment--><path d="M388.305,402.2362 C384.798,427.7422 380.9636,455.6284 378.316,474.884 " fill="none" id="Customer-Segment" style="stroke: #A80036; stroke-width: 1.0;"/><text fill="#000000" font-family="sans-serif" font-size="13" lengthAdjust="spacingAndGlyphs" textLength="6" x="381.099" y="422.1291">*</text><text fill="#000000" font-family="sans-serif" font-size="13" lengthAdjust="spacingAndGlyphs" textLength="6" x="372.397" y="464.3905">*</text><!--link Segment to Offer--><path d="M375,523.1953 C375,544.2991 375,574.7552 375,595.8466 " fill="none" id="Segment-Offer" style="stroke: #A80036; stroke-width: 1.0;"/><text fill="#000000" font-family="sans-serif" font-size="13" lengthAdjust="spacingAndGlyphs" textLength="6" x="368.2688" y="543.5272">*</text><text fill="#000000" font-family="sans-serif" font-size="13" lengthAdjust="spacingAndGlyphs" textLength="6" x="368.2313" y="585.3436">*</text><!--link Offer to Product--><path d="M383.3984,644.1953 C389.3352,661.299 397.4043,684.5458 404.1472,703.9716 " fill="none" id="Offer-Product" style="stroke: #A80036; stroke-width: 1.0;"/><text fill="#000000" font-family="sans-serif" font-size="13" lengthAdjust="spacingAndGlyphs" textLength="6" x="378.7143" y="664.5272">*</text><text fill="#000000" font-family="sans-serif" font-size="13" lengthAdjust="spacingAndGlyphs" textLength="6" x="395.2243" y="693.3669">*</text><!--link Product to Price--><path d="M437.056,778.3265 C447.0424,796.9122 459.08,819.3155 469.0515,837.8737 " fill="none" id="Product-Price" style="stroke: #A80036; stroke-width: 1.0;"/><text fill="#000000" font-family="sans-serif" font-size="13" lengthAdjust="spacingAndGlyphs" textLength="8" x="431.7153" y="798.3524">1</text><text fill="#000000" font-family="sans-serif" font-size="13" lengthAdjust="spacingAndGlyphs" textLength="8" x="456.636" y="827.251">1</text><!--link Product to ProductClass--><path d="M396.944,778.3265 C386.9576,796.9122 374.92,819.3155 364.9485,837.8737 " fill="none" id="Product-ProductClass" style="stroke: #A80036; stroke-width: 1.0;"/><text fill="#000000" font-family="sans-serif" font-size="13" lengthAdjust="spacingAndGlyphs" textLength="6" x="387.1254" y="798.3524">*</text><text fill="#000000" font-family="sans-serif" font-size="13" lengthAdjust="spacingAndGlyphs" textLength="8" x="359.889" y="827.251">1</text><!--link Purchase to Product--><path d="M485.435,523.0886 C472.1439,565.4103 444.517,653.38 428.7318,703.6434 " fill="none" id="Purchase-Product" style="stroke: #A80036; stroke-width: 1.0;"/><text fill="#000000" font-family="sans-serif" font-size="13" lengthAdjust="spacingAndGlyphs" textLength="6" x="476.8598" y="543.3945">*</text><text fill="#000000" font-family="sans-serif" font-size="13" lengthAdjust="spacingAndGlyphs" textLength="8" x="422.109" y="693.2573">1</text><!--link Customer to Purchase--><path d="M434.9417,402.2362 C450.2453,427.7422 466.9771,455.6284 478.5304,474.884 " fill="none" id="Customer-Purchase" style="stroke: #A80036; stroke-width: 1.0;"/><text fill="#000000" font-family="sans-serif" font-size="13" lengthAdjust="spacingAndGlyphs" textLength="8" x="430.4419" y="422.1291">1</text><text fill="#000000" font-family="sans-serif" font-size="13" lengthAdjust="spacingAndGlyphs" textLength="6" x="468.0538" y="464.3905">*</text><!--link Purchase to Payment--><path d="M504.9977,523.1953 C515.4624,544.2991 530.5646,574.7552 541.0231,595.8466 " fill="none" id="Purchase-Payment" style="stroke: #A80036; stroke-width: 1.0;"/><text fill="#000000" font-family="sans-serif" font-size="13" lengthAdjust="spacingAndGlyphs" textLength="8" x="498.9471" y="543.5272">1</text><text fill="#000000" font-family="sans-serif" font-size="13" lengthAdjust="spacingAndGlyphs" textLength="8" x="528.929" y="585.3436">1</text><!--
@startuml

class Region {
  + regionCode: String
  + regionName: String
}

class CustomerRegion {
  + status: CustomerRegionStatus
  + kycStatusMap: [KycType, KycStatus]
}

class Identity {
  + id: String
  + type: String
}

class Identifies {
  + provider: String
}

class Customer {
  + customerId: UUID
  + nickname: String
  + contactEmail: Email
  + analyticsId: UUID
  + referralId: UUID
- -
  getAvailableProducts():[ProductID]
}

class Bundle {
  + balance: Long
}

class SimProfile {
  + ICCID: String
  + status: String
  + alias: String
}

class Subscription {
 + MSISDN: String
}

class Segment
note left: Visible to Admin Only

class Offer
note left: Visible to Admin Only

class ProductClass {
  + id: UUID
  + path: String
}

class Price {
  + currency: String
  + amount: Int
}

class Product {
  + SKU: UUID
  + price: Price
}

class PurchaseRecord {
  + id: UUID
  + timestamp: Long
}

class Plan {
  + id: String
  + stripePlanId: String?
  + stripeProductId: String?
  + interval: String
  + intervalCount: Long
}

Identity "1" - - "1" Identifies
Customer "1" - - "1" Identifies
Customer "1" - - "*" Customer

Customer "1" - - "*" CustomerRegion
Region "1" - - "*" CustomerRegion
Customer "1" - - "*" Bundle
SimProfile "*" - - "1" Region
SimProfile "1" - - "*" Subscription
Subscription "*" - - "1" Customer
Subscription "*" - - "*" Bundle

Customer "*" - - "*" Segment
Segment "*" - - "*" Offer
Offer "*" - - "*" Product
Product "1" - - "1" Price
Product "*" - - "1" ProductClass

PurchaseRecord "*" - - "1" Product
Customer "1" - - "*" PurchaseRecord
PurchaseRecord "1"  - - "1" Payment
Customer "1" - - "*" Plan

@enduml

PlantUML version 1.2019.03(Sun Mar 10 16:34:44 IST 2019)
(GPL source distribution)
Java Runtime: OpenJDK Runtime Environment
JVM: OpenJDK 64-Bit Server VM
Java Version: 11.0.2+7-LTS
Operating System: Mac OS X
OS Version: 10.14.4
Default Encoding: UTF-8
Language: en
Country: IN
--></g></svg>