<svg xmlns="http://www.w3.org/2000/svg" width="779.5106201171875" height="559.4603271484375"
     viewBox="-406.3400573730469 -242.26220703125 779.5106201171875 559.4603271484375">
  <title>Neo4j Graph Visualization</title>
  <desc>Created using Neo4j (http://www.neo4j.com/)</desc>
  <g class="layer relationships">
    <g class="relationship" transform="translate(-377.3400561985208 28.631450057622487) rotate(361.3375071200645)">
      <path class="outline" fill="#A5ABB6" stroke="none"
            d="M 25 0.5 L 123.34317997516962 0.5 L 123.34317997516962 -0.5 L 25 -0.5 Z M 173.34708622516962 0.5 L 271.69026620033924 0.5 L 271.69026620033924 3.5 L 278.69026620033924 0 L 271.69026620033924 -3.5 L 271.69026620033924 -0.5 L 173.34708622516962 -0.5 Z"/>
      <text text-anchor="middle" pointer-events="none" font-size="8px" fill="#000000" x="148.34513310016962" y="3"
            font-family="sans-serif">IDENTIFIES
      </text>
    </g>
    <g class="relationship" transform="translate(-23.678240802986622 286.8865799941259) rotate(360.3846686695056)">
      <path class="outline" fill="#A5ABB6" stroke="none"
            d="M 25 0.5 L 50.50181623141809 0.5 L 50.50181623141809 -0.5 L 25 -0.5 Z M 137.8494724814181 0.5 L 163.35128871283618 0.5 L 163.35128871283618 3.5 L 170.35128871283618 0 L 163.35128871283618 -3.5 L 163.35128871283618 -0.5 L 137.8494724814181 -0.5 Z"/>
      <text text-anchor="middle" pointer-events="none" font-size="8px" fill="#000000" x="94.17564435641809" y="3"
            font-family="sans-serif">FOR_PURCHASE_OF
      </text>
    </g>
    <g class="relationship" transform="translate(-23.678240802986622 286.8865799941259) rotate(258.72933563623326)">
      <path class="outline" fill="#A5ABB6" stroke="none"
            d="M 25 0.5 L 81.09766644324938 0.5 L 81.09766644324938 -0.5 L 25 -0.5 Z M 168.00782269324938 0.5 L 224.10548913649876 0.5 L 224.10548913649876 3.5 L 231.10548913649876 0 L 224.10548913649876 -3.5 L 224.10548913649876 -0.5 L 168.00782269324938 -0.5 Z"/>
      <text text-anchor="middle" pointer-events="none" font-size="8px" fill="#000000" x="124.55274456824938" y="3"
            transform="rotate(180 124.55274456824938 0)" font-family="sans-serif">FOR_PURCHASE_BY
      </text>
    </g>
    <g class="relationship" transform="translate(-88.91556134709609 -213.26220894489268) rotate(529.476154681538)">
      <path class="outline" fill="#A5ABB6" stroke="none"
            d="M 25 0.5 L 66.31907526975482 0.5 L 66.31907526975482 -0.5 L 25 -0.5 Z M 182.56516901975482 0.5 L 223.88424428950964 0.5 L 223.88424428950964 3.5 L 230.88424428950964 0 L 223.88424428950964 -3.5 L 223.88424428950964 -0.5 L 182.56516901975482 -0.5 Z"/>
      <text text-anchor="middle" pointer-events="none" font-size="8px" fill="#000000" x="124.44212214475482" y="3"
            transform="rotate(180 124.44212214475482 0)" font-family="sans-serif">SIM_PROFILE_FOR_REGION
      </text>
    </g>
    <g class="relationship" transform="translate(332.0650452792553 155.63351376831935) rotate(500.4269118418602)">
      <path class="outline" fill="#A5ABB6" stroke="none"
            d="M 25 0.5 L 51.537853174977045 0.5 L 51.537853174977045 -0.5 L 25 -0.5 Z M 149.54957192497704 0.5 L 176.0874250999541 0.5 L 176.0874250999541 3.5 L 183.0874250999541 0 L 176.0874250999541 -3.5 L 176.0874250999541 -0.5 L 149.54957192497704 -0.5 Z"/>
      <text text-anchor="middle" pointer-events="none" font-size="8px" fill="#000000" x="100.54371254997704" y="3"
            transform="rotate(180 100.54371254997704 0)" font-family="sans-serif">OFFER_HAS_PRODUCT
      </text>
    </g>
    <g class="relationship" transform="translate(332.0650452792553 155.63351376831935) rotate(185.07762169568315)">
      <path class="outline" fill="#A5ABB6" stroke="none"
            d="M 25 0.5 L 50.56115543629821 0.5 L 50.56115543629821 -0.5 L 25 -0.5 Z M 154.2095929362982 0.5 L 179.77074837259642 0.5 L 179.77074837259642 3.5 L 186.77074837259642 0 L 179.77074837259642 -3.5 L 179.77074837259642 -0.5 L 154.2095929362982 -0.5 Z"/>
      <text text-anchor="middle" pointer-events="none" font-size="8px" fill="#000000" x="102.38537418629821" y="3"
            transform="rotate(180 102.38537418629821 0)" font-family="sans-serif">OFFERED_TO_SEGMENT
      </text>
    </g>
    <g class="relationship" transform="translate(-73.73253239460013 35.72012232290933) rotate(387.43842159298435)">
      <path class="outline" fill="#A5ABB6" stroke="none"
            d="M 25 0.5 L 56.89350698131322 0.5 L 56.89350698131322 -0.5 L 25 -0.5 Z M 155.66303823131324 0.5 L 187.55654521262645 0.5 L 187.55654521262645 3.5 L 194.55654521262645 0 L 187.55654521262645 -3.5 L 187.55654521262645 -0.5 L 155.66303823131324 -0.5 Z"/>
      <text text-anchor="middle" pointer-events="none" font-size="8px" fill="#000000" x="106.27827260631322" y="3"
            font-family="sans-serif">BELONG_TO_SEGMENT
      </text>
    </g>
    <g class="relationship" transform="translate(-73.73253239460013 35.72012232290933) rotate(474.20970144746525)">
      <path class="outline" fill="#A5ABB6" stroke="none"
            d="M 25 0.5 L 77.1889476079912 0.5 L 77.1889476079912 -0.5 L 25 -0.5 Z M 175.5248851079912 0.5 L 227.7138327159824 0.5 L 227.7138327159824 3.5 L 234.7138327159824 0 L 227.7138327159824 -3.5 L 227.7138327159824 -0.5 L 175.5248851079912 -0.5 Z"/>
      <text text-anchor="middle" pointer-events="none" font-size="8px" fill="#000000" x="126.3569163579912" y="3"
            transform="rotate(180 126.3569163579912 0)" font-family="sans-serif">SUBSCRIBES_TO_PLAN
      </text>
    </g>
    <g class="relationship" transform="translate(-73.73253239460013 35.72012232290933) rotate(323.32441941747516)">
      <path class="outline" fill="#A5ABB6" stroke="none"
            d="M 25 0.5 L 117.82551885882435 0.5 L 117.82551885882435 -0.5 L 25 -0.5 Z M 204.73176885882435 0.5 L 297.5572877176487 0.5 L 297.5572877176487 3.5 L 304.5572877176487 0 L 297.5572877176487 -3.5 L 297.5572877176487 -0.5 L 204.73176885882435 -0.5 Z"/>
      <text text-anchor="middle" pointer-events="none" font-size="8px" fill="#000000" x="161.27864385882435" y="3"
            font-family="sans-serif">HAS_SUBSCRIPTION
      </text>
    </g>
    <g class="relationship" transform="translate(-73.73253239460013 35.72012232290933) rotate(266.51040467678814)">
      <path class="outline" fill="#A5ABB6" stroke="none"
            d="M 25 0.5 L 81.32202681841895 0.5 L 81.32202681841895 -0.5 L 25 -0.5 Z M 161.12280806841895 0.5 L 217.4448348868379 0.5 L 217.4448348868379 3.5 L 224.4448348868379 0 L 217.4448348868379 -3.5 L 217.4448348868379 -0.5 L 161.12280806841895 -0.5 Z"/>
      <text text-anchor="middle" pointer-events="none" font-size="8px" fill="#000000" x="121.22241744341895" y="3"
            transform="rotate(180 121.22241744341895 0)" font-family="sans-serif">HAS_SIM_PROFILE
      </text>
    </g>
    <g class="relationship" transform="translate(-73.73253239460013 35.72012232290933) rotate(217.16758886348788)">
      <path class="outline" fill="#A5ABB6" stroke="none"
            d="M 25 0.5 L 118.49663682478948 0.5 L 118.49663682478948 -0.5 L 25 -0.5 Z M 209.26616807478948 0.5 L 302.76280489957895 0.5 L 302.76280489957895 3.5 L 309.76280489957895 0 L 302.76280489957895 -3.5 L 302.76280489957895 -0.5 L 209.26616807478948 -0.5 Z"/>
      <text text-anchor="middle" pointer-events="none" font-size="8px" fill="#000000" x="163.88140244978948" y="3"
            transform="rotate(180 163.88140244978948 0)" font-family="sans-serif">BELONG_TO_REGION
      </text>
    </g>
    <g class="relationship" transform="translate(-73.73253239460013 35.72012232290933) rotate(507.6058958462929)">
      <path class="outline" fill="#A5ABB6" stroke="none"
            d="M 25 0.5 L 88.29502638653204 0.5 L 88.29502638653204 -0.5 L 25 -0.5 Z M 142.75596388653204 0.5 L 206.0509902730641 0.5 L 206.0509902730641 3.5 L 213.0509902730641 0 L 206.0509902730641 -3.5 L 206.0509902730641 -0.5 L 142.75596388653204 -0.5 Z"/>
      <text text-anchor="middle" pointer-events="none" font-size="8px" fill="#000000" x="115.52549513653204" y="3"
            transform="rotate(180 115.52549513653204 0)" font-family="sans-serif">EKYC_SCAN
      </text>
    </g>
    <g class="relationship" transform="translate(-73.73253239460013 35.72012232290933) rotate(359.27240968125966)">
      <path class="outline" fill="#A5ABB6" stroke="none"
            d="M 25 0.5 L 175.7926185221115 0.5 L 175.7926185221115 -0.5 L 25 -0.5 Z M 235.1441810221115 0.5 L 385.936799544223 0.5 L 385.936799544223 3.5 L 392.936799544223 0 L 385.936799544223 -3.5 L 385.936799544223 -0.5 L 235.1441810221115 -0.5 Z"/>
      <text text-anchor="middle" pointer-events="none" font-size="8px" fill="#000000" x="205.4683997721115" y="3"
            font-family="sans-serif">HAS_BUNDLE
      </text>
    </g>
    <g class="relationship" transform="translate(-73.73253239460013 35.72012232290933) rotate(204.91741204713165)">
      <path class="outline" fill="#A5ABB6" stroke="none"
            d="M 6.953439040707552 24.018736134675446 L 17.306200844808384 62.65576918623819 A 17.916697508022974 17.916697508022974 0 1 1 -17.306200844808384 62.65576918623819 L -8.765172356425198 30.780216918698923 L -4.901469051268926 31.815493099109005 L -6.4704761275630185 24.148145657226706 L -11.662949835292403 30.00375978339136 L -7.79924653013613 31.039035963801442 L -16.340275018519314 62.91458823134071 A 16.916697508022974 16.916697508022974 0 1 0 16.340275018519314 62.91458823134071 L 5.987513214418485 24.277555179777966 Z"/>
      <text text-anchor="middle" pointer-events="none" font-size="8px" fill="#000000" x="0" y="94.20964923467838"
            transform="rotate(180 0 91.20964923467838)" font-family="sans-serif">REFERRED
      </text>
    </g>
    <g class="relationship" transform="translate(190.5823909534093 -161.11896724862115) rotate(411.27410446194494)">
      <path class="outline" fill="#A5ABB6" stroke="none"
            d="M 25 0.5 L 75.64424376948537 0.5 L 75.64424376948537 -0.5 L 25 -0.5 Z M 162.86299376948537 0.5 L 213.50723753897074 0.5 L 213.50723753897074 3.5 L 220.50723753897074 0 L 213.50723753897074 -3.5 L 213.50723753897074 -0.5 L 162.86299376948537 -0.5 Z"/>
      <text text-anchor="middle" pointer-events="none" font-size="8px" fill="#000000" x="119.25361876948537" y="3"
            font-family="sans-serif">LINKED_TO_BUNDLE
      </text>
    </g>
    <g class="relationship" transform="translate(190.5823909534093 -161.11896724862115) rotate(190.56763808430486)">
      <path class="outline" fill="#A5ABB6" stroke="none"
            d="M 25 0.5 L 60.53318808445732 0.5 L 60.53318808445732 -0.5 L 25 -0.5 Z M 216.78709433445732 0.5 L 252.32028241891464 0.5 L 252.32028241891464 3.5 L 259.32028241891464 0 L 252.32028241891464 -3.5 L 252.32028241891464 -0.5 L 216.78709433445732 -0.5 Z"/>
      <text text-anchor="middle" pointer-events="none" font-size="8px" fill="#000000" x="138.66014120945732" y="3"
            transform="rotate(180 138.66014120945732 0)" font-family="sans-serif">SUBSCRIPTION_UNDER_SIM_PROFILE
      </text>
    </g>
  </g>
  <g class="layer nodes">
    <g class="node" transform="translate(121.12534687750723,136.89068835513484)">
      <circle class="outline" cx="0" cy="0" r="25" fill="#68BDF6" stroke="#5CA8DB" stroke-width="2px"/>
      <text text-anchor="middle" pointer-events="none" font-family="sans-serif" dy="1.5625" font-size="25"
            fill="#FFFFFF"/>
      <text text-anchor="middle" pointer-events="none" y="5" font-size="10px" fill="#FFFFFF" font-family="sans-serif">
        Segment
      </text>
    </g>
    <g class="node" transform="translate(-377.3400561985208,28.631450057622487)">
      <circle class="outline" cx="0" cy="0" r="25" fill="#FB95AF" stroke="#E0849B" stroke-width="2px"/>
      <text text-anchor="middle" pointer-events="none" font-family="sans-serif" dy="1.5625" font-size="25"
            fill="#FFFFFF"/>
      <text text-anchor="middle" pointer-events="none" y="5" font-size="10px" fill="#FFFFFF" font-family="sans-serif">
        Identity
      </text>
    </g>
    <g class="node" transform="translate(344.17056921064983,30.412949631147775)">
      <circle class="outline" cx="0" cy="0" r="25" fill="#FFD86E" stroke="#EDBA39" stroke-width="2px"/>
      <text text-anchor="middle" pointer-events="none" font-family="sans-serif" dy="1.5625" font-size="25"
            fill="#604A0E"/>
      <text text-anchor="middle" pointer-events="none" y="5" font-size="10px" fill="#604A0E" font-family="sans-serif">
        Bundle
      </text>
    </g>
    <g class="node" transform="translate(-23.678240802986622,286.8865799941259)">
      <circle class="outline" cx="0" cy="0" r="25" fill="#6DCE9E" stroke="#60B58B" stroke-width="2px"/>
      <text text-anchor="middle" pointer-events="none" font-family="sans-serif" dy="1.5625" font-size="25"
            fill="#FFFFFF"/>
      <text text-anchor="middle" pointer-events="none" y="5" font-size="10px" fill="#FFFFFF" font-family="sans-serif">
        Purchas…
      </text>
    </g>
    <g class="node" transform="translate(-88.91556134709609,-213.26220894489268)">
      <circle class="outline" cx="0" cy="0" r="25" fill="#FFD86E" stroke="#EDBA39" stroke-width="2px"/>
      <text text-anchor="middle" pointer-events="none" font-family="sans-serif" dy="1.5625" font-size="25"
            fill="#604A0E"/>
      <text text-anchor="middle" pointer-events="none" y="5" font-size="10px" fill="#604A0E" font-family="sans-serif">
        SimProfile
      </text>
    </g>
    <g class="node" transform="translate(332.0650452792553,155.63351376831935)">
      <circle class="outline" cx="0" cy="0" r="25" fill="#A5ABB6" stroke="#9AA1AC" stroke-width="2px"/>
      <text text-anchor="middle" pointer-events="none" font-family="sans-serif" dy="1.5625" font-size="25"
            fill="#FFFFFF"/>
      <text text-anchor="middle" pointer-events="none" y="5" font-size="10px" fill="#FFFFFF" font-family="sans-serif">
        Offer
      </text>
    </g>
    <g class="node" transform="translate(171.66864527142675,288.1981068890228)">
      <circle class="outline" cx="0" cy="0" r="25" fill="#FF756E" stroke="#E06760" stroke-width="2px"/>
      <text text-anchor="middle" pointer-events="none" font-family="sans-serif" dy="1.5625" font-size="25"
            fill="#FFFFFF"/>
      <text text-anchor="middle" pointer-events="none" y="5" font-size="10px" fill="#FFFFFF" font-family="sans-serif">
        Product
      </text>
    </g>
    <g class="node" transform="translate(-340.4955715835275,-166.52630278003375)">
      <circle class="outline" cx="0" cy="0" r="25" fill="#68BDF6" stroke="#5CA8DB" stroke-width="2px"/>
      <text text-anchor="middle" pointer-events="none" font-family="sans-serif" dy="1.5625" font-size="25"
            fill="#FFFFFF"/>
      <text text-anchor="middle" pointer-events="none" y="5" font-size="10px" fill="#FFFFFF" font-family="sans-serif">
        Region
      </text>
    </g>
    <g class="node" transform="translate(-73.73253239460013,35.72012232290933)">
      <circle class="outline" cx="0" cy="0" r="25" fill="#FF756E" stroke="#E06760" stroke-width="2px"/>
      <text text-anchor="middle" pointer-events="none" font-family="sans-serif" dy="1.5625" font-size="25"
            fill="#FFFFFF"/>
      <text text-anchor="middle" pointer-events="none" y="5" font-size="10px" fill="#FFFFFF" font-family="sans-serif">
        Customer
      </text>
    </g>
    <g class="node" transform="translate(-274.73875567437824,163.2535382294334)">
      <circle class="outline" cx="0" cy="0" r="25" fill="#A5ABB6" stroke="#9AA1AC" stroke-width="2px"/>
      <text text-anchor="middle" pointer-events="none" font-family="sans-serif" dy="1.5625" font-size="25"
            fill="#FFFFFF"/>
      <text text-anchor="middle" pointer-events="none" y="5" font-size="10px" fill="#FFFFFF" font-family="sans-serif">
        ScanInf…
      </text>
    </g>
    <g class="node" transform="translate(190.5823909534093,-161.11896724862115)">
      <circle class="outline" cx="0" cy="0" r="25" fill="#FF756E" stroke="#E06760" stroke-width="2px"/>
      <text text-anchor="middle" pointer-events="none" font-family="sans-serif" dy="1.5625" font-size="25"
            fill="#FFFFFF"/>
      <text text-anchor="middle" pointer-events="none" y="5" font-size="10px" fill="#FFFFFF" font-family="sans-serif">
        Subscrip…
      </text>
    </g>
    <g class="node" transform="translate(-180.23532387766744,272.5923036999963)">
      <circle class="outline" cx="0" cy="0" r="25" fill="#6DCE9E" stroke="#60B58B" stroke-width="2px"/>
      <text text-anchor="middle" pointer-events="none" font-family="sans-serif" dy="1.5625" font-size="25"
            fill="#FFFFFF"/>
      <text text-anchor="middle" pointer-events="none" y="5" font-size="10px" fill="#FFFFFF" font-family="sans-serif">
        Plan
      </text>
    </g>
  </g>
</svg>