<?xml version="1.0" encoding="UTF-8" standalone="no"?><svg xmlns="http://www.w3.org/2000/svg" xmlns:xlink="http://www.w3.org/1999/xlink" contentScriptType="application/ecmascript" contentStyleType="text/css" height="369px" preserveAspectRatio="none" style="width:300px;height:369px;" version="1.1" viewBox="0 0 300 369" width="300px" zoomAndPan="magnify"><defs><filter height="300%" id="fzea2opzcjhbi" width="300%" x="-1" y="-1"><feGaussianBlur result="blurOut" stdDeviation="2.0"/><feColorMatrix in="blurOut" result="blurOut2" type="matrix" values="0 0 0 0 0 0 0 0 0 0 0 0 0 0 0 0 0 0 .4 0"/><feOffset dx="4.0" dy="4.0" in="blurOut2" result="blurOut3"/><feBlend in="SourceGraphic" in2="blurOut3" mode="normal"/></filter></defs><g><line style="stroke: #A80036; stroke-width: 1.0; stroke-dasharray: 5.0,5.0;" x1="39" x2="39" y1="86.4883" y2="282.3516"/><line style="stroke: #A80036; stroke-width: 1.0; stroke-dasharray: 5.0,5.0;" x1="155" x2="155" y1="86.4883" y2="282.3516"/><line style="stroke: #A80036; stroke-width: 1.0; stroke-dasharray: 5.0,5.0;" x1="264.5" x2="264.5" y1="86.4883" y2="282.3516"/><text fill="#000000" font-family="sans-serif" font-size="14" lengthAdjust="spacingAndGlyphs" textLength="56" x="8" y="83.5352">Handset</text><ellipse cx="39" cy="13" fill="#FEFECE" filter="url(#fzea2opzcjhbi)" rx="8" ry="8" style="stroke: #A80036; stroke-width: 2.0;"/><path d="M39,21 L39,48 M26,29 L52,29 M39,48 L26,63 M39,48 L52,63 " fill="none" filter="url(#fzea2opzcjhbi)" style="stroke: #A80036; stroke-width: 2.0;"/><text fill="#000000" font-family="sans-serif" font-size="14" lengthAdjust="spacingAndGlyphs" textLength="56" x="8" y="294.8867">Handset</text><ellipse cx="39" cy="307.8398" fill="#FEFECE" filter="url(#fzea2opzcjhbi)" rx="8" ry="8" style="stroke: #A80036; stroke-width: 2.0;"/><path d="M39,315.8398 L39,342.8398 M26,323.8398 L52,323.8398 M39,342.8398 L26,357.8398 M39,342.8398 L52,357.8398 " fill="none" filter="url(#fzea2opzcjhbi)" style="stroke: #A80036; stroke-width: 2.0;"/><rect fill="#FEFECE" filter="url(#fzea2opzcjhbi)" height="30.4883" style="stroke: #A80036; stroke-width: 1.5;" width="54" x="126" y="51"/><text fill="#000000" font-family="sans-serif" font-size="14" lengthAdjust="spacingAndGlyphs" textLength="40" x="133" y="71.5352">Stripe</text><rect fill="#FEFECE" filter="url(#fzea2opzcjhbi)" height="30.4883" style="stroke: #A80036; stroke-width: 1.5;" width="54" x="126" y="281.3516"/><text fill="#000000" font-family="sans-serif" font-size="14" lengthAdjust="spacingAndGlyphs" textLength="40" x="133" y="301.8867">Stripe</text><rect fill="#FEFECE" filter="url(#fzea2opzcjhbi)" height="30.4883" style="stroke: #A80036; stroke-width: 1.5;" width="53" x="236.5" y="51"/><text fill="#000000" font-family="sans-serif" font-size="14" lengthAdjust="spacingAndGlyphs" textLength="39" x="243.5" y="71.5352">Prime</text><rect fill="#FEFECE" filter="url(#fzea2opzcjhbi)" height="30.4883" style="stroke: #A80036; stroke-width: 1.5;" width="53" x="236.5" y="281.3516"/><text fill="#000000" font-family="sans-serif" font-size="14" lengthAdjust="spacingAndGlyphs" textLength="39" x="243.5" y="301.8867">Prime</text><polygon fill="#A80036" points="143,113.7988,153,117.7988,143,121.7988,147,117.7988" style="stroke: #A80036; stroke-width: 1.0;"/><line style="stroke: #A80036; stroke-width: 1.0;" x1="39" x2="149" y1="117.7988" y2="117.7988"/><text fill="#000000" font-family="sans-serif" font-size="13" lengthAdjust="spacingAndGlyphs" textLength="51" x="46" y="113.0566">CC-info</text><polygon fill="#A80036" points="50,143.1094,40,147.1094,50,151.1094,46,147.1094" style="stroke: #A80036; stroke-width: 1.0;"/><line style="stroke: #A80036; stroke-width: 1.0;" x1="44" x2="154" y1="147.1094" y2="147.1094"/><text fill="#000000" font-family="sans-serif" font-size="13" lengthAdjust="spacingAndGlyphs" textLength="92" x="56" y="142.3672">PaymentToken</text><polygon fill="#A80036" points="253,172.4199,263,176.4199,253,180.4199,257,176.4199" style="stroke: #A80036; stroke-width: 1.0;"/><line style="stroke: #A80036; stroke-width: 1.0; stroke-dasharray: 2.0,2.0;" x1="39" x2="259" y1="176.4199" y2="176.4199"/><text fill="#000000" font-family="sans-serif" font-size="13" lengthAdjust="spacingAndGlyphs" textLength="191" x="46" y="171.6777">Buy(prod, paymentToken, etc.)</text><polygon fill="#A80036" points="166,201.7305,156,205.7305,166,209.7305,162,205.7305" style="stroke: #A80036; stroke-width: 1.0;"/><line style="stroke: #A80036; stroke-width: 1.0;" x1="160" x2="264" y1="205.7305" y2="205.7305"/><text fill="#000000" font-family="sans-serif" font-size="13" lengthAdjust="spacingAndGlyphs" textLength="86" x="172" y="200.9883">Buy(token, ...)</text><polygon fill="#A80036" points="253,231.041,263,235.041,253,239.041,257,235.041" style="stroke: #A80036; stroke-width: 1.0;"/><line style="stroke: #A80036; stroke-width: 1.0; stroke-dasharray: 2.0,2.0;" x1="155" x2="259" y1="235.041" y2="235.041"/><text fill="#000000" font-family="sans-serif" font-size="13" lengthAdjust="spacingAndGlyphs" textLength="18" x="162" y="230.2988">Ok</text><polygon fill="#A80036" points="50,260.3516,40,264.3516,50,268.3516,46,264.3516" style="stroke: #A80036; stroke-width: 1.0;"/><line style="stroke: #A80036; stroke-width: 1.0; stroke-dasharray: 2.0,2.0;" x1="44" x2="264" y1="264.3516" y2="264.3516"/><text fill="#000000" font-family="sans-serif" font-size="13" lengthAdjust="spacingAndGlyphs" textLength="148" x="56" y="259.6094">Response of buy thingy</text><!--
@startuml
actor Handset
Handset -> Stripe : CC-info
Stripe -> Handset: PaymentToken
Handset - -> Prime: Buy(prod, paymentToken, etc.)
Prime -> Stripe: Buy(token, ...)
Stripe - -> Prime: Ok
Prime - - -> Handset: Response of buy thingy

@enduml

PlantUML version 1.2018.05(Sat May 05 22:00:17 CEST 2018)
(GPL source distribution)
Java Runtime: Java(TM) SE Runtime Environment
JVM: Java HotSpot(TM) 64-Bit Server VM
Java Version: 9+181
Operating System: Mac OS X
OS Version: 10.13.5
Default Encoding: UTF-8
Language: en
Country: NO
--></g></svg>