<?xml version="1.0" encoding="UTF-8" standalone="no"?><svg xmlns="http://www.w3.org/2000/svg" xmlns:xlink="http://www.w3.org/1999/xlink" contentScriptType="application/ecmascript" contentStyleType="text/css" height="121px" preserveAspectRatio="none" style="width:938px;height:121px;" version="1.1" viewBox="0 0 938 121" width="938px" zoomAndPan="magnify"><defs><filter height="300%" id="fk249cj6e0bak" width="300%" x="-1" y="-1"><feGaussianBlur result="blurOut" stdDeviation="2.0"/><feColorMatrix in="blurOut" result="blurOut2" type="matrix" values="0 0 0 0 0 0 0 0 0 0 0 0 0 0 0 0 0 0 .4 0"/><feOffset dx="4.0" dy="4.0" in="blurOut2" result="blurOut3"/><feBlend in="SourceGraphic" in2="blurOut3" mode="normal"/></filter></defs><g><ellipse cx="16" cy="85" fill="#000000" filter="url(#fk249cj6e0bak)" rx="10" ry="10" style="stroke: none; stroke-width: 1.0;"/><rect fill="#FEFECE" filter="url(#fk249cj6e0bak)" height="50" rx="12.5" ry="12.5" style="stroke: #A80036; stroke-width: 1.5;" width="138" x="61" y="60"/><line style="stroke: #A80036; stroke-width: 1.5;" x1="61" x2="199" y1="86.4883" y2="86.4883"/><text fill="#000000" font-family="sans-serif" font-size="14" lengthAdjust="spacingAndGlyphs" textLength="118" x="71" y="78.5352">PurchaseInitiated</text><rect fill="#FEFECE" filter="url(#fk249cj6e0bak)" height="50" rx="12.5" ry="12.5" style="stroke: #A80036; stroke-width: 1.5;" width="153" x="234.5" y="60"/><line style="stroke: #A80036; stroke-width: 1.5;" x1="234.5" x2="387.5" y1="86.4883" y2="86.4883"/><text fill="#000000" font-family="sans-serif" font-size="14" lengthAdjust="spacingAndGlyphs" textLength="133" x="244.5" y="78.5352">PaymentCompleted</text><rect fill="#FEFECE" filter="url(#fk249cj6e0bak)" height="50" rx="12.5" ry="12.5" style="stroke: #A80036; stroke-width: 1.5;" width="78" x="697" y="60"/><line style="stroke: #A80036; stroke-width: 1.5;" x1="697" x2="775" y1="86.4883" y2="86.4883"/><text fill="#000000" font-family="sans-serif" font-size="14" lengthAdjust="spacingAndGlyphs" textLength="58" x="707" y="78.5352">Rollback</text><rect fill="#FEFECE" filter="url(#fk249cj6e0bak)" height="50" rx="12.5" ry="12.5" style="stroke: #A80036; stroke-width: 1.5;" width="130" x="423" y="60"/><line style="stroke: #A80036; stroke-width: 1.5;" x1="423" x2="553" y1="86.4883" y2="86.4883"/><text fill="#000000" font-family="sans-serif" font-size="14" lengthAdjust="spacingAndGlyphs" textLength="110" x="433" y="78.5352">BalanceUpdated</text><rect fill="#FEFECE" filter="url(#fk249cj6e0bak)" height="50" rx="12.5" ry="12.5" style="stroke: #A80036; stroke-width: 1.5;" width="73" x="588.5" y="60"/><line style="stroke: #A80036; stroke-width: 1.5;" x1="588.5" x2="661.5" y1="86.4883" y2="86.4883"/><text fill="#000000" font-family="sans-serif" font-size="14" lengthAdjust="spacingAndGlyphs" textLength="53" x="598.5" y="78.5352">Success</text><rect fill="#FEFECE" filter="url(#fk249cj6e0bak)" height="50" rx="12.5" ry="12.5" style="stroke: #A80036; stroke-width: 1.5;" width="61" x="810.5" y="60"/><line style="stroke: #A80036; stroke-width: 1.5;" x1="810.5" x2="871.5" y1="86.4883" y2="86.4883"/><text fill="#000000" font-family="sans-serif" font-size="14" lengthAdjust="spacingAndGlyphs" textLength="41" x="820.5" y="78.5352">Failed</text><ellipse cx="917" cy="85" fill="none" filter="url(#fk249cj6e0bak)" rx="10" ry="10" style="stroke: #000000; stroke-width: 1.0;"/><ellipse cx="917.5" cy="85.5" fill="#000000" rx="6" ry="6" style="stroke: none; stroke-width: 1.0;"/><!--link *start to PurchaseInitiated--><path d="M26.2422,85 C36.0212,85 45.8002,85 55.5792,85 " fill="none" id="*start-PurchaseInitiated" style="stroke: #A80036; stroke-width: 1.0;"/><polygon fill="#A80036" points="60.693,85,51.693,81,55.693,85,51.693,89,60.693,85" style="stroke: #A80036; stroke-width: 1.0;"/><!--link PurchaseInitiated to PaymentCompleted--><path d="M199.2891,85 C209.1983,85 219.1076,85 229.0168,85 " fill="none" id="PurchaseInitiated-PaymentCompleted" style="stroke: #A80036; stroke-width: 1.0;"/><polygon fill="#A80036" points="234.1987,85,225.1987,81,229.1987,85,225.1987,89,234.1987,85" style="stroke: #A80036; stroke-width: 1.0;"/><!--link PurchaseInitiated to Rollback--><path d="M166.9201,59.9219 C186.1621,48.3553 210.6162,35.9015 234.5,30 C326.6184,7.2384 571.3677,0.334 661.5,30 C677.9688,35.4205 693.7832,46.0346 706.5719,56.5046 " fill="none" id="PurchaseInitiated-Rollback" style="stroke: #A80036; stroke-width: 1.0;"/><polygon fill="#A80036" points="710.4411,59.7433,706.1073,50.8992,706.607,56.5339,700.9723,57.0337,710.4411,59.7433" style="stroke: #A80036; stroke-width: 1.0;"/><!--link PaymentCompleted to BalanceUpdated--><path d="M387.7461,85 C397.7507,85 407.7553,85 417.7599,85 " fill="none" id="PaymentCompleted-BalanceUpdated" style="stroke: #A80036; stroke-width: 1.0;"/><polygon fill="#A80036" points="422.9916,85,413.9916,81,417.9916,85,413.9916,89,422.9916,85" style="stroke: #A80036; stroke-width: 1.0;"/><!--link PaymentCompleted to Rollback--><path d="M350.9964,59.9041 C371.7751,48.333 398.0829,35.8805 423.5,30 C526.5556,6.1571 561.0247,-3.0703 661.5,30 C677.9688,35.4205 693.7832,46.0346 706.5719,56.5046 " fill="none" id="PaymentCompleted-Rollback" style="stroke: #A80036; stroke-width: 1.0;"/><polygon fill="#A80036" points="710.4411,59.7433,706.1073,50.8992,706.607,56.5339,700.9723,57.0337,710.4411,59.7433" style="stroke: #A80036; stroke-width: 1.0;"/><!--link BalanceUpdated to Success--><path d="M553.0215,85 C563.0776,85 573.1336,85 583.1897,85 " fill="none" id="BalanceUpdated-Success" style="stroke: #A80036; stroke-width: 1.0;"/><polygon fill="#A80036" points="588.4484,85,579.4484,81,583.4484,85,579.4484,89,588.4484,85" style="stroke: #A80036; stroke-width: 1.0;"/><!--link BalanceUpdated to Rollback--><path d="M523.3765,59.9321 C541.8486,48.3681 565.3764,35.9135 588.5,30 C619.9329,21.9615 630.6819,19.8566 661.5,30 C677.9688,35.4205 693.7832,46.0346 706.5719,56.5046 " fill="none" id="BalanceUpdated-Rollback" style="stroke: #A80036; stroke-width: 1.0;"/><polygon fill="#A80036" points="710.4411,59.7433,706.1073,50.8992,706.607,56.5339,700.9723,57.0337,710.4411,59.7433" style="stroke: #A80036; stroke-width: 1.0;"/><!--link Rollback to Failed--><path d="M775.375,85 C785.3439,85 795.3127,85 805.2816,85 " fill="none" id="Rollback-Failed" style="stroke: #A80036; stroke-width: 1.0;"/><polygon fill="#A80036" points="810.4946,85,801.4946,81,805.4946,85,801.4946,89,810.4946,85" style="stroke: #A80036; stroke-width: 1.0;"/><!--link Success to *end--><path d="M649.7569,59.7545 C662.7618,48.3001 679.6806,35.9943 697.5,30 C770.7974,5.3436 801.5267,-2.9269 871.5,30 C889.476,38.4589 902.7811,57.8919 910.2159,71.2374 " fill="none" id="Success-*end" style="stroke: #A80036; stroke-width: 1.0;"/><polygon fill="#A80036" points="912.6872,75.8471,911.9602,66.0251,910.3248,71.4404,904.9095,69.805,912.6872,75.8471" style="stroke: #A80036; stroke-width: 1.0;"/><!--link Failed to *end--><path d="M871.5781,85 C881.5502,85 891.5223,85 901.4944,85 " fill="none" id="Failed-*end" style="stroke: #A80036; stroke-width: 1.0;"/><polygon fill="#A80036" points="906.7091,85,897.7091,81,901.7091,85,897.7091,89,906.7091,85" style="stroke: #A80036; stroke-width: 1.0;"/><!--
@startuml


[*] -> PurchaseInitiated
PurchaseInitiated -> PaymentCompleted
PurchaseInitiated -> Rollback
PaymentCompleted -> BalanceUpdated
PaymentCompleted -> Rollback
BalanceUpdated -> Success
BalanceUpdated -> Rollback
Rollback -> Failed
Success -> [*]
Failed -> [*]
@enduml

PlantUML version 1.2018.05(Sat May 05 22:00:17 CEST 2018)
(GPL source distribution)
Java Runtime: Java(TM) SE Runtime Environment
JVM: Java HotSpot(TM) 64-Bit Server VM
Java Version: 9+181
Operating System: Mac OS X
OS Version: 10.13.5
Default Encoding: UTF-8
Language: en
Country: NO
--></g></svg>