<?xml version="1.0" encoding="UTF-8" standalone="no"?><svg xmlns="http://www.w3.org/2000/svg" xmlns:xlink="http://www.w3.org/1999/xlink" contentScriptType="application/ecmascript" contentStyleType="text/css" height="121px" preserveAspectRatio="none" style="width:966px;height:121px;" version="1.1" viewBox="0 0 966 121" width="966px" zoomAndPan="magnify"><defs><filter height="300%" id="fk249cj6e0bak" width="300%" x="-1" y="-1"><feGaussianBlur result="blurOut" stdDeviation="2.0"/><feColorMatrix in="blurOut" result="blurOut2" type="matrix" values="0 0 0 0 0 0 0 0 0 0 0 0 0 0 0 0 0 0 .4 0"/><feOffset dx="4.0" dy="4.0" in="blurOut2" result="blurOut3"/><feBlend in="SourceGraphic" in2="blurOut3" mode="normal"/></filter></defs><g><ellipse cx="16" cy="85" fill="#000000" filter="url(#fk249cj6e0bak)" rx="10" ry="10" style="stroke: none; stroke-width: 1.0;"/><rect fill="#FEFECE" filter="url(#fk249cj6e0bak)" height="50" rx="12.5" ry="12.5" style="stroke: #A80036; stroke-width: 1.5;" width="143" x="61.5" y="60"/><line style="stroke: #A80036; stroke-width: 1.5;" x1="61.5" x2="204.5" y1="86.2969" y2="86.2969"/><text fill="#000000" font-family="sans-serif" font-size="14" lengthAdjust="spacingAndGlyphs" textLength="123" x="71.5" y="77.9951">PurchaseInitiated</text><rect fill="#FEFECE" filter="url(#fk249cj6e0bak)" height="50" rx="12.5" ry="12.5" style="stroke: #A80036; stroke-width: 1.5;" width="160" x="240" y="60"/><line style="stroke: #A80036; stroke-width: 1.5;" x1="240" x2="400" y1="86.2969" y2="86.2969"/><text fill="#000000" font-family="sans-serif" font-size="14" lengthAdjust="spacingAndGlyphs" textLength="140" x="250" y="77.9951">PaymentCompleted</text><rect fill="#FEFECE" filter="url(#fk249cj6e0bak)" height="50" rx="12.5" ry="12.5" style="stroke: #A80036; stroke-width: 1.5;" width="81" x="720.5" y="60"/><line style="stroke: #A80036; stroke-width: 1.5;" x1="720.5" x2="801.5" y1="86.2969" y2="86.2969"/><text fill="#000000" font-family="sans-serif" font-size="14" lengthAdjust="spacingAndGlyphs" textLength="61" x="730.5" y="77.9951">Rollback</text><rect fill="#FEFECE" filter="url(#fk249cj6e0bak)" height="50" rx="12.5" ry="12.5" style="stroke: #A80036; stroke-width: 1.5;" width="138" x="435" y="60"/><line style="stroke: #A80036; stroke-width: 1.5;" x1="435" x2="573" y1="86.2969" y2="86.2969"/><text fill="#000000" font-family="sans-serif" font-size="14" lengthAdjust="spacingAndGlyphs" textLength="118" x="445" y="77.9951">BalanceUpdated</text><rect fill="#FEFECE" filter="url(#fk249cj6e0bak)" height="50" rx="12.5" ry="12.5" style="stroke: #A80036; stroke-width: 1.5;" width="77" x="608.5" y="60"/><line style="stroke: #A80036; stroke-width: 1.5;" x1="608.5" x2="685.5" y1="86.2969" y2="86.2969"/><text fill="#000000" font-family="sans-serif" font-size="14" lengthAdjust="spacingAndGlyphs" textLength="57" x="618.5" y="77.9951">Success</text><rect fill="#FEFECE" filter="url(#fk249cj6e0bak)" height="50" rx="12.5" ry="12.5" style="stroke: #A80036; stroke-width: 1.5;" width="63" x="836.5" y="60"/><line style="stroke: #A80036; stroke-width: 1.5;" x1="836.5" x2="899.5" y1="86.2969" y2="86.2969"/><text fill="#000000" font-family="sans-serif" font-size="14" lengthAdjust="spacingAndGlyphs" textLength="43" x="846.5" y="77.9951">Failed</text><ellipse cx="945" cy="85" fill="none" filter="url(#fk249cj6e0bak)" rx="10" ry="10" style="stroke: #000000; stroke-width: 1.0;"/><ellipse cx="945.5" cy="85.5" fill="#000000" rx="6" ry="6" style="stroke: none; stroke-width: 1.0;"/><!--link *start to PurchaseInitiated--><path d="M26.0547,85 C36.0155,85 45.9764,85 55.9372,85 " fill="none" id="*start-PurchaseInitiated" style="stroke: #A80036; stroke-width: 1.0;"/><polygon fill="#A80036" points="61.1461,85,52.1461,81,56.1461,85,52.1461,89,61.1461,85" style="stroke: #A80036; stroke-width: 1.0;"/><!--link PurchaseInitiated to PaymentCompleted--><path d="M204.586,85 C214.568,85 224.55,85 234.531,85 " fill="none" id="PurchaseInitiated-PaymentCompleted" style="stroke: #A80036; stroke-width: 1.0;"/><polygon fill="#A80036" points="239.751,85,230.751,81,234.751,85,230.751,89,239.751,85" style="stroke: #A80036; stroke-width: 1.0;"/><!--link PurchaseInitiated to Rollback--><path d="M171.075,59.9148 C190.894,48.3464 216.043,35.8931 240.5,30 C336.637,6.835 591.47,-0.618 685.5,30 C702.129,35.4149 718.147,46.0281 731.116,56.4989 " fill="none" id="PurchaseInitiated-Rollback" style="stroke: #A80036; stroke-width: 1.0;"/><polygon fill="#A80036" points="735.041,59.738,730.6463,50.924,731.1849,56.5552,725.5537,57.0938,735.041,59.738" style="stroke: #A80036; stroke-width: 1.0;"/><!--link PaymentCompleted to BalanceUpdated--><path d="M400.141,85 C409.929,85 419.718,85 429.506,85 " fill="none" id="PaymentCompleted-BalanceUpdated" style="stroke: #A80036; stroke-width: 1.0;"/><polygon fill="#A80036" points="434.625,85,425.625,81,429.625,85,425.625,89,434.625,85" style="stroke: #A80036; stroke-width: 1.0;"/><!--link PaymentCompleted to Rollback--><path d="M361.147,59.8983 C382.501,48.3256 409.504,35.8736 435.5,30 C543.879,5.513 579.849,-4.402 685.5,30 C702.129,35.4149 718.147,46.0281 731.116,56.4989 " fill="none" id="PaymentCompleted-Rollback" style="stroke: #A80036; stroke-width: 1.0;"/><polygon fill="#A80036" points="735.041,59.738,730.6463,50.924,731.1849,56.5552,725.5537,57.0938,735.041,59.738" style="stroke: #A80036; stroke-width: 1.0;"/><!--link BalanceUpdated to Success--><path d="M573.266,85 C583.24,85 593.214,85 603.189,85 " fill="none" id="BalanceUpdated-Success" style="stroke: #A80036; stroke-width: 1.0;"/><polygon fill="#A80036" points="608.405,85,599.405,81,603.405,85,599.405,89,608.405,85" style="stroke: #A80036; stroke-width: 1.0;"/><!--link BalanceUpdated to Rollback--><path d="M540.92,59.9219 C560.162,48.3553 584.616,35.9015 608.5,30 C641.723,21.7909 652.959,19.4042 685.5,30 C702.129,35.4149 718.147,46.0281 731.116,56.4989 " fill="none" id="BalanceUpdated-Rollback" style="stroke: #A80036; stroke-width: 1.0;"/><polygon fill="#A80036" points="735.041,59.738,730.6463,50.924,731.1849,56.5552,725.5537,57.0938,735.041,59.738" style="stroke: #A80036; stroke-width: 1.0;"/><!--link Rollback to Failed--><path d="M801.543,85 C811.417,85 821.291,85 831.166,85 " fill="none" id="Rollback-Failed" style="stroke: #A80036; stroke-width: 1.0;"/><polygon fill="#A80036" points="836.329,85,827.329,81,831.329,85,827.329,89,836.329,85" style="stroke: #A80036; stroke-width: 1.0;"/><!--link Success to *end--><path d="M672.158,59.7488 C685.357,48.2931 702.504,35.9877 720.5,30 C795.987,4.883 827.516,-3.873 899.5,30 C917.476,38.4589 930.781,57.8919 938.216,71.2374 " fill="none" id="Success-*end" style="stroke: #A80036; stroke-width: 1.0;"/><polygon fill="#A80036" points="940.687,75.8471,939.9604,66.0251,938.3248,71.4403,932.9095,69.8047,940.687,75.8471" style="stroke: #A80036; stroke-width: 1.0;"/><!--link Failed to *end--><path d="M899.582,85 C909.553,85 919.524,85 929.496,85 " fill="none" id="Failed-*end" style="stroke: #A80036; stroke-width: 1.0;"/><polygon fill="#A80036" points="934.71,85,925.71,81,929.71,85,925.71,89,934.71,85" style="stroke: #A80036; stroke-width: 1.0;"/><!--
@startuml


[*] -> PurchaseInitiated
PurchaseInitiated -> PaymentCompleted
PurchaseInitiated -> Rollback
PaymentCompleted -> BalanceUpdated
PaymentCompleted -> Rollback
BalanceUpdated -> Success
BalanceUpdated -> Rollback
Rollback -> Failed
Success -> [*]
Failed -> [*]
@enduml

PlantUML version 1.2018.08(Sun Jun 24 14:31:00 CEST 2018)
(GPL source distribution)
Java Runtime: OpenJDK Runtime Environment
JVM: OpenJDK 64-Bit Server VM
Java Version: 1.8.0_171-8u171-b11-0ubuntu0.17.10.1-b11
Operating System: Linux
OS Version: 4.13.0-46-generic
Default Encoding: UTF-8
Language: nb
Country: NO
--></g></svg>