<?xml version="1.0" encoding="UTF-8" standalone="no"?><svg xmlns="http://www.w3.org/2000/svg" xmlns:xlink="http://www.w3.org/1999/xlink" contentScriptType="application/ecmascript" contentStyleType="text/css" height="421px" preserveAspectRatio="none" style="width:1086px;height:421px;" version="1.1" viewBox="0 0 1086 421" width="1086px" zoomAndPan="magnify"><defs><filter height="300%" id="f1hf85zup4ch6u" width="300%" x="-1" y="-1"><feGaussianBlur result="blurOut" stdDeviation="2.0"/><feColorMatrix in="blurOut" result="blurOut2" type="matrix" values="0 0 0 0 0 0 0 0 0 0 0 0 0 0 0 0 0 0 .4 0"/><feOffset dx="4.0" dy="4.0" in="blurOut2" result="blurOut3"/><feBlend in="SourceGraphic" in2="blurOut3" mode="normal"/></filter></defs><g><!--cluster Handset--><polygon fill="#FFFFFF" filter="url(#f1hf85zup4ch6u)" points="392,137,457,137,464,159.4883,591,159.4883,591,227,392,227,392,137" style="stroke: #000000; stroke-width: 1.5;"/><line style="stroke: #000000; stroke-width: 1.5;" x1="392" x2="464" y1="159.4883" y2="159.4883"/><text fill="#000000" font-family="sans-serif" font-size="14" font-weight="bold" lengthAdjust="spacingAndGlyphs" textLength="59" x="396" y="152.5352">Handset</text><!--cluster Payment service--><polygon fill="#FFFFFF" filter="url(#f1hf85zup4ch6u)" points="717,16,840,16,847,38.4883,850,38.4883,850,106,717,106,717,16" style="stroke: #000000; stroke-width: 1.5;"/><line style="stroke: #000000; stroke-width: 1.5;" x1="717" x2="847" y1="38.4883" y2="38.4883"/><text fill="#000000" font-family="sans-serif" font-size="14" font-weight="bold" lengthAdjust="spacingAndGlyphs" textLength="117" x="721" y="31.5352">Payment service</text><!--cluster Authentication service--><polygon fill="#FFFFFF" filter="url(#f1hf85zup4ch6u)" points="14,311,181,311,188,333.4883,191,333.4883,191,401,14,401,14,311" style="stroke: #000000; stroke-width: 1.5;"/><line style="stroke: #000000; stroke-width: 1.5;" x1="14" x2="188" y1="333.4883" y2="333.4883"/><text fill="#000000" font-family="sans-serif" font-size="14" font-weight="bold" lengthAdjust="spacingAndGlyphs" textLength="161" x="18" y="326.5352">Authentication service</text><!--cluster Host Operator--><polygon fill="#FFFFFF" filter="url(#f1hf85zup4ch6u)" points="199,311,308,311,315,333.4883,318,333.4883,318,401,199,401,199,311" style="stroke: #000000; stroke-width: 1.5;"/><line style="stroke: #000000; stroke-width: 1.5;" x1="199" x2="315" y1="333.4883" y2="333.4883"/><text fill="#000000" font-family="sans-serif" font-size="14" font-weight="bold" lengthAdjust="spacingAndGlyphs" textLength="103" x="203" y="326.5352">Host Operator</text><!--cluster On Premise (MVNE)--><polygon fill="#FFFFFF" filter="url(#f1hf85zup4ch6u)" points="907,311,1054,311,1061,333.4883,1064,333.4883,1064,401,907,401,907,311" style="stroke: #000000; stroke-width: 1.5;"/><line style="stroke: #000000; stroke-width: 1.5;" x1="907" x2="1061" y1="333.4883" y2="333.4883"/><text fill="#000000" font-family="sans-serif" font-size="14" font-weight="bold" lengthAdjust="spacingAndGlyphs" textLength="141" x="911" y="326.5352">On Premise (MVNE)</text><!--cluster GCP--><polygon fill="#FFFFFF" filter="url(#f1hf85zup4ch6u)" points="326,274,361,274,368,296.4883,898,296.4883,898,409,326,409,326,274" style="stroke: #000000; stroke-width: 1.5;"/><line style="stroke: #000000; stroke-width: 1.5;" x1="326" x2="368" y1="296.4883" y2="296.4883"/><text fill="#000000" font-family="sans-serif" font-size="14" font-weight="bold" lengthAdjust="spacingAndGlyphs" textLength="29" x="330" y="289.5352">GCP</text><!--cluster Cloud endpoints--><polygon fill="#FFFFFF" filter="url(#f1hf85zup4ch6u)" points="399,311,524,311,531,333.4883,561,333.4883,561,401,399,401,399,311" style="stroke: #000000; stroke-width: 1.5;"/><line style="stroke: #000000; stroke-width: 1.5;" x1="399" x2="531" y1="333.4883" y2="333.4883"/><text fill="#000000" font-family="sans-serif" font-size="14" font-weight="bold" lengthAdjust="spacingAndGlyphs" textLength="119" x="403" y="326.5352">Cloud endpoints</text><!--cluster Pod--><polygon fill="#FFFFFF" filter="url(#f1hf85zup4ch6u)" points="610,311,620,301,890,301,890,391,880,401,610,401,610,311" style="stroke: #000000; stroke-width: 1.5;"/><line style="stroke: #000000; stroke-width: 1.5;" x1="880" x2="889" y1="311" y2="302"/><line style="stroke: #000000; stroke-width: 1.5;" x1="610" x2="880" y1="311" y2="311"/><line style="stroke: #000000; stroke-width: 1.5;" x1="880" x2="880" y1="311" y2="401"/><text fill="#000000" font-family="sans-serif" font-size="14" font-weight="bold" lengthAdjust="spacingAndGlyphs" textLength="27" x="732.5" y="327.5352">Pod</text><!--entity App--><rect fill="#FEFECE" filter="url(#f1hf85zup4ch6u)" height="36.4883" style="stroke: #A80036; stroke-width: 1.5;" width="48" x="535" y="183"/><rect fill="#FEFECE" height="5" style="stroke: #A80036; stroke-width: 1.5;" width="10" x="530" y="188"/><rect fill="#FEFECE" height="5" style="stroke: #A80036; stroke-width: 1.5;" width="10" x="530" y="209.4883"/><text fill="#000000" font-family="sans-serif" font-size="14" lengthAdjust="spacingAndGlyphs" textLength="28" x="545" y="206.5352">App</text><!--entity Mobile data--><rect fill="#FEFECE" filter="url(#f1hf85zup4ch6u)" height="36.4883" style="stroke: #A80036; stroke-width: 1.5;" width="100" x="400" y="183"/><rect fill="#FEFECE" height="5" style="stroke: #A80036; stroke-width: 1.5;" width="10" x="395" y="188"/><rect fill="#FEFECE" height="5" style="stroke: #A80036; stroke-width: 1.5;" width="10" x="395" y="209.4883"/><text fill="#000000" font-family="sans-serif" font-size="14" lengthAdjust="spacingAndGlyphs" textLength="80" x="410" y="206.5352">Mobile data</text><!--entity Payment--><rect fill="#FEFECE" filter="url(#f1hf85zup4ch6u)" height="36.4883" style="stroke: #A80036; stroke-width: 1.5;" width="78" x="744" y="62"/><rect fill="#FEFECE" height="5" style="stroke: #A80036; stroke-width: 1.5;" width="10" x="739" y="67"/><rect fill="#FEFECE" height="5" style="stroke: #A80036; stroke-width: 1.5;" width="10" x="739" y="88.4883"/><text fill="#000000" font-family="sans-serif" font-size="14" lengthAdjust="spacingAndGlyphs" textLength="58" x="754" y="85.5352">Payment</text><!--entity AUTH--><rect fill="#FEFECE" filter="url(#f1hf85zup4ch6u)" height="36.4883" style="stroke: #A80036; stroke-width: 1.5;" width="59" x="123.5" y="357"/><rect fill="#FEFECE" height="5" style="stroke: #A80036; stroke-width: 1.5;" width="10" x="118.5" y="362"/><rect fill="#FEFECE" height="5" style="stroke: #A80036; stroke-width: 1.5;" width="10" x="118.5" y="383.4883"/><text fill="#000000" font-family="sans-serif" font-size="14" lengthAdjust="spacingAndGlyphs" textLength="39" x="133.5" y="380.5352">AUTH</text><!--entity PGW--><rect fill="#FEFECE" filter="url(#f1hf85zup4ch6u)" height="36.4883" style="stroke: #A80036; stroke-width: 1.5;" width="50" x="249" y="357"/><rect fill="#FEFECE" height="5" style="stroke: #A80036; stroke-width: 1.5;" width="10" x="244" y="362"/><rect fill="#FEFECE" height="5" style="stroke: #A80036; stroke-width: 1.5;" width="10" x="244" y="383.4883"/><text fill="#000000" font-family="sans-serif" font-size="14" lengthAdjust="spacingAndGlyphs" textLength="30" x="259" y="380.5352">PGW</text><!--entity Ocsgw--><rect fill="#FEFECE" filter="url(#f1hf85zup4ch6u)" height="36.4883" style="stroke: #A80036; stroke-width: 1.5;" width="65" x="916.5" y="357"/><rect fill="#FEFECE" height="5" style="stroke: #A80036; stroke-width: 1.5;" width="10" x="911.5" y="362"/><rect fill="#FEFECE" height="5" style="stroke: #A80036; stroke-width: 1.5;" width="10" x="911.5" y="383.4883"/><text fill="#000000" font-family="sans-serif" font-size="14" lengthAdjust="spacingAndGlyphs" textLength="45" x="926.5" y="380.5352">Ocsgw</text><!--entity DB--><path d="M334,362.5 C334,352.5 353,352.5 353,352.5 C353,352.5 372,352.5 372,362.5 L372,387.9883 C372,397.9883 353,397.9883 353,397.9883 C353,397.9883 334,397.9883 334,387.9883 L334,362.5 " fill="#FEFECE" filter="url(#f1hf85zup4ch6u)" style="stroke: #000000; stroke-width: 1.5;"/><path d="M334,362.5 C334,372.5 353,372.5 353,372.5 C353,372.5 372,372.5 372,362.5 " fill="none" style="stroke: #000000; stroke-width: 1.5;"/><text fill="#000000" font-family="sans-serif" font-size="14" lengthAdjust="spacingAndGlyphs" textLength="18" x="344" y="390.0352">DB</text><!--entity CEP1--><rect fill="#FEFECE" filter="url(#f1hf85zup4ch6u)" height="36.4883" style="stroke: #A80036; stroke-width: 1.5;" width="55" x="497.5" y="357"/><rect fill="#FEFECE" height="5" style="stroke: #A80036; stroke-width: 1.5;" width="10" x="492.5" y="362"/><rect fill="#FEFECE" height="5" style="stroke: #A80036; stroke-width: 1.5;" width="10" x="492.5" y="383.4883"/><text fill="#000000" font-family="sans-serif" font-size="14" lengthAdjust="spacingAndGlyphs" textLength="35" x="507.5" y="380.5352">CEP1</text><!--entity CEP2--><rect fill="#FEFECE" filter="url(#f1hf85zup4ch6u)" height="36.4883" style="stroke: #A80036; stroke-width: 1.5;" width="55" x="407.5" y="357"/><rect fill="#FEFECE" height="5" style="stroke: #A80036; stroke-width: 1.5;" width="10" x="402.5" y="362"/><rect fill="#FEFECE" height="5" style="stroke: #A80036; stroke-width: 1.5;" width="10" x="402.5" y="383.4883"/><text fill="#000000" font-family="sans-serif" font-size="14" lengthAdjust="spacingAndGlyphs" textLength="35" x="417.5" y="380.5352">CEP2</text><!--entity ESP1--><rect fill="#FEFECE" filter="url(#f1hf85zup4ch6u)" height="36.4883" style="stroke: #A80036; stroke-width: 1.5;" width="53" x="706.5" y="357"/><rect fill="#FEFECE" height="5" style="stroke: #A80036; stroke-width: 1.5;" width="10" x="701.5" y="362"/><rect fill="#FEFECE" height="5" style="stroke: #A80036; stroke-width: 1.5;" width="10" x="701.5" y="383.4883"/><text fill="#000000" font-family="sans-serif" font-size="14" lengthAdjust="spacingAndGlyphs" textLength="33" x="716.5" y="380.5352">ESP1</text><!--entity ESP2--><rect fill="#FEFECE" filter="url(#f1hf85zup4ch6u)" height="36.4883" style="stroke: #A80036; stroke-width: 1.5;" width="53" x="618.5" y="357"/><rect fill="#FEFECE" height="5" style="stroke: #A80036; stroke-width: 1.5;" width="10" x="613.5" y="362"/><rect fill="#FEFECE" height="5" style="stroke: #A80036; stroke-width: 1.5;" width="10" x="613.5" y="383.4883"/><text fill="#000000" font-family="sans-serif" font-size="14" lengthAdjust="spacingAndGlyphs" textLength="33" x="628.5" y="380.5352">ESP2</text><!--entity Prime--><rect fill="#FEFECE" filter="url(#f1hf85zup4ch6u)" height="36.4883" style="stroke: #A80036; stroke-width: 1.5;" width="59" x="822.5" y="357"/><rect fill="#FEFECE" height="5" style="stroke: #A80036; stroke-width: 1.5;" width="10" x="817.5" y="362"/><rect fill="#FEFECE" height="5" style="stroke: #A80036; stroke-width: 1.5;" width="10" x="817.5" y="383.4883"/><text fill="#000000" font-family="sans-serif" font-size="14" lengthAdjust="spacingAndGlyphs" textLength="39" x="832.5" y="380.5352">Prime</text><!--link App to AUTH--><path d="M534.9455,217.9116 C529.5358,221.2389 523.7037,224.4761 518,227 C458.1495,253.4835 440.6571,255.8555 376,266 C355.6739,269.1891 207.6603,261.9271 191,274 C164.4519,293.2381 156.4426,333.3714 154.032,356.8424 " fill="none" id="App-AUTH" style="stroke: #A80036; stroke-width: 1.0;"/><!--link Payment to App--><path d="M749.4649,98.1149 C703.819,122.7719 623.2298,166.3044 583.1032,187.98 " fill="none" id="Payment-App" style="stroke: #A80036; stroke-width: 1.0;"/><!--link Payment to Prime--><path d="M793.6706,98.4694 C810.4699,128.7291 842.3689,191.2852 854,249 C861.6069,286.746 857.809,332.1459 854.6924,356.8348 " fill="none" id="Payment-Prime" style="stroke: #A80036; stroke-width: 1.0;"/><!--link Mobile data to PGW--><path d="M400.5981,219.0465 C373.301,231.0993 340.4706,249.3035 318,274 C295.9892,298.1912 283.7514,335.1289 278.0514,356.9909 " fill="none" id="Mobile data-PGW" style="stroke: #A80036; stroke-width: 1.0;"/><text fill="#000000" font-family="sans-serif" font-size="13" lengthAdjust="spacingAndGlyphs" textLength="21" x="346" y="262.5684">gtp</text><!--link App to CEP1--><path d="M583.361,201.9092 C640.3373,204.5991 779.6199,214.6266 808,249 C812.8104,254.8263 813.2379,260.5547 808,266 C792.1203,282.5084 622.3269,263.4403 602,274 C567.5628,291.8898 544.0822,332.9194 532.7699,356.8159 " fill="none" id="App-CEP1" style="stroke: #A80036; stroke-width: 1.0;"/><text fill="#000000" font-family="sans-serif" font-size="13" lengthAdjust="spacingAndGlyphs" textLength="33" x="812" y="262.5684">https</text><!--link CEP1 to ESP1--><path d="M533.323,356.7114 C544.9561,333.6527 568.483,295.0829 602,279 C636.861,262.2722 656.4573,258.1174 689,279 C715.6942,296.1296 726.4035,333.9488 730.5417,356.6715 " fill="none" id="CEP1-ESP1" style="stroke: #A80036; stroke-width: 1.0;"/><text fill="#000000" font-family="sans-serif" font-size="13" lengthAdjust="spacingAndGlyphs" textLength="26" x="553" y="262.5684">http</text><!--link CEP2 to ESP2--><path d="M437.6488,356.6568 C442.0233,333.9184 453.126,296.0828 480,279 C513.3821,257.7803 533.3923,261.7741 569,279 C602.2961,295.1076 625.4404,333.6686 636.8511,356.719 " fill="none" id="CEP2-ESP2" style="stroke: #A80036; stroke-width: 1.0;"/><text fill="#000000" font-family="sans-serif" font-size="13" lengthAdjust="spacingAndGlyphs" textLength="32" x="586" y="262.5684">gRPC</text><!--link PGW to Ocsgw--><path d="M276.4583,356.6715 C280.5965,333.9488 291.3058,296.1296 318,279 C372.2379,244.1957 842.7663,245.7988 898,279 C926.1449,295.918 939.591,334.1877 945.3173,356.9684 " fill="none" id="PGW-Ocsgw" style="stroke: #A80036; stroke-width: 1.0;"/><text fill="#000000" font-family="sans-serif" font-size="13" lengthAdjust="spacingAndGlyphs" textLength="55" x="711.5" y="262.5684">diameter</text><!--link Ocsgw to CEP2--><path d="M945.3173,356.9684 C939.591,334.1877 926.1449,295.918 898,279 C858.1936,255.0722 519.1958,254.0847 480,279 C453.126,296.0828 442.0233,333.9184 437.6488,356.6568 " fill="none" id="Ocsgw-CEP2" style="stroke: #A80036; stroke-width: 1.0;"/><text fill="#000000" font-family="sans-serif" font-size="13" lengthAdjust="spacingAndGlyphs" textLength="32" x="774" y="262.5684">gRPC</text><!--link ESP1 to Prime--><path d="M759.7059,375 C778.3449,375 803.2278,375 822.4601,375 " fill="none" id="ESP1-Prime" style="stroke: #A80036; stroke-width: 1.0;"/><text fill="#000000" font-family="sans-serif" font-size="13" lengthAdjust="spacingAndGlyphs" textLength="26" x="778" y="368.5684">http</text><!--link ESP2 to Prime--><path d="M647.4583,356.6715 C651.5965,333.9488 662.3058,296.1296 689,279 C721.9168,257.8774 741.8474,261.8544 777,279 C810.0762,295.1328 832.8376,333.6847 844.0255,356.7268 " fill="none" id="ESP2-Prime" style="stroke: #A80036; stroke-width: 1.0;"/><text fill="#000000" font-family="sans-serif" font-size="13" lengthAdjust="spacingAndGlyphs" textLength="32" x="672" y="262.5684">gRPC</text><!--link Prime to DB--><path d="M844.8745,356.7409 C832.5002,327.9175 804.0184,272.8542 759.5,250.5 C724.6472,232.9992 443.3528,232.9992 408.5,250.5 C370.9614,269.3494 358.7968,321.913 354.8662,352.3769 " fill="none" id="Prime-DB" style="stroke: #A80036; stroke-width: 1.0;"/><!--
@startuml

package "Handset" {
  [App]
  [Mobile data]
}


package "Payment service" {
 [Payment]
}

package "Authentication service" {
 [AUTH]
}



package "Host Operator" {
  [PGW]
}

package "On Premise (MVNE)" {
 [Ocsgw]
}


package "GCP" {

 package "Cloud endpoints"{
   [CEP1]
   [CEP2]
 }

 database DB
  node "Pod" {
   [ESP1]
   [ESP2]
   [Prime]
 }
}

[App] - - [AUTH]
[Payment] - - [App]
[Payment] - - [Prime]
[Mobile data] - - [PGW] : gtp
[App] - [CEP1] : https
[CEP1] - [ESP1] : http
[CEP2] - [ESP2]: gRPC


[PGW] - [Ocsgw]: diameter
[Ocsgw] - [CEP2] : gRPC
[ESP1] - [Prime] : http
[ESP2] - [Prime] : gRPC
[Prime] -  DB

@enduml

PlantUML version 1.2018.05(Sat May 05 22:00:17 CEST 2018)
(GPL source distribution)
Java Runtime: Java(TM) SE Runtime Environment
JVM: Java HotSpot(TM) 64-Bit Server VM
Java Version: 9+181
Operating System: Mac OS X
OS Version: 10.13.4
Default Encoding: UTF-8
Language: en
Country: NO
--></g></svg>