<svg xmlns="http://www.w3.org/2000/svg" width="98" height="98" viewBox="0 0 98 98" xmlns:xlink="http://www.w3.org/1999/xlink"><defs><filter id="a" width="131.5%" height="131.5%" x="-15.7%" y="-12%" filterUnits="objectBoundingBox"><feOffset dy="10" in="SourceAlpha" result="shadowOffsetOuter1"/><feGaussianBlur stdDeviation="12.5" in="shadowOffsetOuter1" result="shadowBlurOuter1"/><feColorMatrix values="0 0 0 0 0.243137255 0 0 0 0 0.235294118 0 0 0 0 0.384313725 0 0 0 0.1 0" in="shadowBlurOuter1"/></filter><linearGradient id="c" x1="0%" x2="97.178%" y1="0%" y2="100%"><stop stop-color="#504D7F" offset="0%"/><stop stop-color="#3C3A5E" offset="100%"/></linearGradient><path id="b" d="M0 5.999A5.995 5.995 0 0 1 5.998 0h58.003a5.999 5.999 0 0 1 5.998 5.999v28.002A6.005 6.005 0 0 1 64.001 40H23.018L9.041 52l.022-12H5.994a5.998 5.998 0 0 1-5.995-5.999V5.999z"/><path id="d" d="M0 5.999A5.995 5.995 0 0 1 5.998 0h58.003a5.999 5.999 0 0 1 5.998 5.999v28.002A6.005 6.005 0 0 1 64.001 40H23.018L9.041 52l.022-12H5.994a5.998 5.998 0 0 1-5.995-5.999V5.999z"/></defs><g transform="translate(-84 -38)" fill="none"><use fill="#000" filter="url(#a)" xlink:href="#f"/><use fill="#fff" xlink:href="#f"/><g transform="translate(88 49)"><g transform="matrix(-1 0 0 1 90 24)"><use fill="#fff" xlink:href="#b"/><path class="icon-color-stroke-primary" stroke="url(#c)" stroke-width="2" d="M10.046 49.82L22.648 39h41.354A5.005 5.005 0 0 0 69 34.001V5.999A4.999 4.999 0 0 0 64.002 1H5.999a4.995 4.995 0 0 0-4.998 4.999v28.002A4.997 4.997 0 0 0 5.996 39h4.07l-.02 10.82z"/><rect class="icon-color-fill-secondary" width="20" height="2" x="8" y="11" fill="#FFA15A" rx="1"/><rect class="icon-color-fill-secondary" width="34" height="2" x="8" y="19" fill="#FFA15A" rx="1"/><rect class="icon-color-fill-secondary" width="10" height="2" x="8" y="27" fill="#FFA15A" rx="1"/><rect class="icon-color-fill-secondary" width="39" height="2" x="23" y="27" fill="#FFA15A" rx="1"/><rect width="15" height="2" x="47" y="15" fill="#000" rx="1"/><rect width="29" height="2" x="33" y="8" fill="#000" rx="1"/></g><use xlink:href="#d"/><path class="icon-color-stroke-primary" fill="#F8F8F8" stroke="url(#c)" stroke-width="2" d="M10.046 49.82L22.648 39h41.354A5.005 5.005 0 0 0 69 34.001V5.999A4.999 4.999 0 0 0 64.002 1H5.999a4.995 4.995 0 0 0-4.998 4.999v28.002A4.997 4.997 0 0 0 5.996 39h4.07l-.02 10.82z"/><path stroke="#fff" stroke-width="6" d="M24.13 43L6.03 58.54 6.058 43h-.063C1.027 43-3 38.97-3 34.001V5.999A8.994 8.994 0 0 1 5.998-3h58.003c4.97 0 8.998 4.03 8.998 8.999v28.002c0 4.967-4.035 8.999-8.998 8.999H24.129z"/><rect class="icon-color-fill-primary" width="20" height="2" x="8" y="11" fill="#504D7F" rx="1"/><rect class="icon-color-fill-primary" width="34" height="2" x="8" y="19" fill="#504D7F" rx="1"/><rect class="icon-color-fill-primary" width="10" height="2" x="8" y="27" fill="#504D7F" rx="1"/><rect class="icon-color-fill-primary" width="39" height="2" x="23" y="27" fill="#504D7F" rx="1"/><rect class="icon-color-fill-primary" width="15" height="2" x="47" y="19" fill="#504D7F" rx="1"/><rect class="icon-color-fill-primary" width="29" height="2" x="33" y="11" fill="#504D7F" rx="1"/></g></g></svg>