<svg xmlns="http://www.w3.org/2000/svg" width="98" height="98" viewBox="0 0 98 98" xmlns:xlink="http://www.w3.org/1999/xlink"><defs><rect id="a" width="270" height="270" rx="8"/><rect id="b" width="80" height="50" x="3" rx="6"/><path id="c" d="M0 60h86v5.5c0 3.038-2.458 5.5-5.494 5.5H5.494A5.501 5.501 0 0 1 0 65.5V60z"/><path id="d" d="M2.347 47.951C2.673 46.321 4.276 45 5.927 45h74.02c1.651 0 3.253 1.312 3.58 2.951l2.231 11.156c.651 3.254-1.503 5.892-4.818 5.892H4.933c-3.312 0-5.47-2.635-4.818-5.892l2.231-11.156z"/><path id="e" d="M33.834 57.898C34.183 56.85 35.361 56 36.461 56h12.012c1.101 0 2.276.847 2.627 1.898l1.735 5.205c.349 1.048-.257 1.898-1.359 1.898H33.458c-1.1 0-1.709-.847-1.359-1.898l1.735-5.205z"/></defs><g transform="translate(-92 -48)" fill="none"><use xlink:href="#a"/><use fill="#fff" xlink:href="#a"/><g transform="translate(98 62)"><use fill="#fff" xlink:href="#b"/><rect class="icon-color-stroke-primary" width="78" height="48" x="4" y="1" stroke="#504D7F" stroke-width="2" rx="6"/><rect class="icon-color-fill-secondary" width="58" height="2" x="14" y="11" fill="#FFA15A" rx="1"/><rect class="icon-color-fill-secondary" width="35" height="2" x="14" y="23" fill="#FFA15A" rx="1"/><rect class="icon-color-fill-secondary" width="39" height="2" x="14" y="35" fill="#FFA15A" rx="1"/><use fill="#F8F8F8" xlink:href="#c"/><path class="icon-color-stroke-primary" stroke="#504D7F" stroke-width="2" d="M1 61v4.5C1 67.982 3.015 70 5.494 70h75.012A4.496 4.496 0 0 0 85 65.5V61H1z"/><use class="icon-color-fill" fill="#F8F8F8" xlink:href="#d"/><path class="icon-color-stroke-primary" stroke="#504D7F" stroke-width="2" d="M3.328 48.147L1.097 59.303c-.528 2.638 1.156 4.696 3.838 4.696h76.007c2.682 0 4.365-2.059 3.838-4.696l-2.231-11.156c-.234-1.169-1.423-2.147-2.6-2.147H5.929c-1.174 0-2.367.984-2.6 2.147z"/><use fill="#fff" xlink:href="#e"/><path class="icon-color-stroke-primary" stroke="#504D7F" stroke-width="2" d="M34.783 58.214l-1.735 5.205c-.135.404-.007.581.41.581h18.018c.416 0 .544-.179.41-.581l-1.735-5.205C49.937 57.572 49.145 57 48.473 57H36.461c-.669 0-1.465.574-1.678 1.214z"/><path class="icon-color-fill-primary" fill="#504D7F" d="M62.07 31.036v-.892c0-.772.165-1.443.494-2.014.33-.571.933-1.178 1.809-1.821.844-.603 1.401-1.093 1.67-1.471.269-.378.404-.8.404-1.266 0-.523-.193-.921-.579-1.194-.386-.273-.925-.41-1.616-.41-1.206 0-2.581.394-4.125 1.182l-1.315-2.641c1.793-1.005 3.694-1.508 5.704-1.508 1.656 0 2.973.398 3.95 1.194.977.796 1.465 1.857 1.465 3.184 0 .884-.201 1.648-.603 2.291-.402.643-1.166 1.367-2.291 2.171-.772.571-1.26 1.005-1.465 1.303-.205.297-.308.687-.308 1.17v.724h-3.196zm-.386 4.125c0-.675.181-1.186.543-1.532.362-.346.888-.519 1.58-.519.667 0 1.184.177 1.55.531.366.354.549.86.549 1.52 0 .635-.185 1.136-.555 1.501-.37.366-.884.549-1.544.549-.675 0-1.198-.179-1.568-.537-.37-.358-.555-.862-.555-1.514z"/></g></g></svg>