<svg xmlns="http://www.w3.org/2000/svg" width="98" height="98" viewBox="0 0 98 98" xmlns:xlink="http://www.w3.org/1999/xlink"><defs><rect id="b" width="290" height="290" rx="8"/><filter id="a" width="143.1%" height="143.1%" x="-21.6%" y="-14.7%" filterUnits="objectBoundingBox"><feOffset dy="20" in="SourceAlpha" result="shadowOffsetOuter1"/><feGaussianBlur stdDeviation="17.5" in="shadowOffsetOuter1" result="shadowBlurOuter1"/><feColorMatrix values="0 0 0 0 0.243137255 0 0 0 0 0.235294118 0 0 0 0 0.384313725 0 0 0 0.1 0" in="shadowBlurOuter1"/></filter><linearGradient id="c" x1="0%" x2="97.178%" y1="0%" y2="100%"><stop stop-color="#504D7F" offset="0%"/><stop stop-color="#3C3A5E" offset="100%"/></linearGradient><path id="d" d="M13 46h25v3c0 1.657-1.344 3-2.991 3H15.991A2.998 2.998 0 0 1 13 49v-3z"/><path id="e" d="M16 50h19v3c0 1.657-1.336 3-3 3H19c-1.657 0-3-1.347-3-3v-3z"/><path id="f" d="M19 54h13v3c0 1.657-1.342 3-2.999 3h-7.002A3.002 3.002 0 0 1 19 57v-3z"/><path id="g" d="M22 58h7v3c0 1.657-1.35 3-3.009 3h-.981a3.007 3.007 0 0 1-3.009-3v-3z"/></defs><g transform="translate(-96 -40)" fill="none"><use filter="url(#a)" xlink:href="#b"/><use fill="#fff" xlink:href="#b"/><g transform="translate(120 57)"><path class="icon-color-stroke-secondary" stroke="#FFA15A" stroke-width="2" d="M21.474 47.49L19 25s1.369 1.265 2.54 1.357c1.171.092 3.646-1.357 3.646-1.357s1.854 2.807 3.091 2.807S31.435 25 31.435 25l-2.474 22.527-7.488-.037z"/><path class="icon-color-stroke-secondary" stroke="#FFA15A" d="M20 31s1.101 1.153 2.042 1.237c.942.084 2.932-1.237 2.932-1.237s1.491 2.558 2.486 2.558c.995 0 3.04-2.558 3.04-2.558" stroke-linecap="round"/><circle class="icon-color-stroke-primary" cx="25" cy="25" r="24" stroke="url(#c)" stroke-width="2"/><use xlink:href="#d"/><path class="icon-color-stroke-primary" fill="#fff" stroke="url(#c)" stroke-width="2" d="M14 47v2c0 1.103.893 2 1.991 2h19.018A1.999 1.999 0 0 0 37 49v-2H14z"/><use xlink:href="#e"/><path class="icon-color-stroke-primary" stroke="url(#c)" stroke-width="2" d="M17 51v2c0 1.103.897 2 2 2h13c1.109 0 2-.893 2-2v-2H17z"/><use xlink:href="#f"/><path class="icon-color-stroke-primary" stroke="url(#c)" stroke-width="2" d="M20 55v2c0 1.103.896 2 1.999 2h7.002A2 2 0 0 0 31 57v-2H20z"/><use xlink:href="#g"/><path class="icon-color-stroke-primary" stroke="url(#c)" stroke-width="2" d="M23 59v2c0 1.102.9 2 2.009 2h.981a2.006 2.006 0 0 0 2.009-2v-2h-5z"/></g><g fill="url(#c)" transform="translate(96 40)"><rect class="icon-color-fill-primary" width="2" height="14" x="48" rx="1"/><g transform="translate(0 48)"><rect class="icon-color-fill-primary" width="14" height="2" x="84" rx="1"/><rect class="icon-color-fill-primary" width="14" height="2" rx="1"/></g><g transform="rotate(45 -8.941 25)"><rect class="icon-color-fill-primary" width="10" height="2" x="88.243" rx="1"/><rect class="icon-color-fill-primary" width="10" height="2" rx="1"/></g><g transform="rotate(-45 106.941 25)"><rect class="icon-color-fill-primary" width="10" height="2" x="88.243" rx="1"/><rect class="icon-color-fill-primary" width="10" height="2" rx="1"/></g></g></g></svg>