<?xml version="1.0" encoding="UTF-8" standalone="no"?><svg xmlns="http://www.w3.org/2000/svg" xmlns:xlink="http://www.w3.org/1999/xlink" contentScriptType="application/ecmascript" contentStyleType="text/css" height="895px" preserveAspectRatio="none" style="width:314px;height:895px;" version="1.1" viewBox="0 0 314 895" width="314px" zoomAndPan="magnify"><defs><filter height="300%" id="f311ldilsqzx5" width="300%" x="-1" y="-1"><feGaussianBlur result="blurOut" stdDeviation="2.0"/><feColorMatrix in="blurOut" result="blurOut2" type="matrix" values="0 0 0 0 0 0 0 0 0 0 0 0 0 0 0 0 0 0 .4 0"/><feOffset dx="4.0" dy="4.0" in="blurOut2" result="blurOut3"/><feBlend in="SourceGraphic" in2="blurOut3" mode="normal"/></filter></defs><g><ellipse cx="154.5" cy="18" fill="#000000" filter="url(#f311ldilsqzx5)" rx="10" ry="10" style="stroke: none; stroke-width: 1.0;"/><rect fill="#FEFECE" filter="url(#f311ldilsqzx5)" height="48.2656" rx="12.5" ry="12.5" style="stroke: #A80036; stroke-width: 1.5;" width="211" x="49" y="68"/><text fill="#000000" font-family="sans-serif" font-size="12" lengthAdjust="spacingAndGlyphs" textLength="120" x="92.5" y="89.6016">Make feature branch</text><text fill="#000000" font-family="sans-serif" font-size="12" lengthAdjust="spacingAndGlyphs" textLength="187" x="63" y="103.7344">feature/something from develop</text><rect fill="#FEFECE" filter="url(#f311ldilsqzx5)" height="34.1328" rx="12.5" ry="12.5" style="stroke: #A80036; stroke-width: 1.5;" width="175" x="67" y="156"/><text fill="#000000" font-family="sans-serif" font-size="12" lengthAdjust="spacingAndGlyphs" textLength="155" x="77" y="177.6016">Add features until satisfied</text><rect fill="#FEFECE" filter="url(#f311ldilsqzx5)" height="48.2656" rx="12.5" ry="12.5" style="stroke: #A80036; stroke-width: 1.5;" width="170" x="69.5" y="230"/><text fill="#000000" font-family="sans-serif" font-size="12" lengthAdjust="spacingAndGlyphs" textLength="111" x="99" y="251.6016">Create pull request</text><text fill="#000000" font-family="sans-serif" font-size="12" lengthAdjust="spacingAndGlyphs" textLength="146" x="83.5" y="265.7344">towards 'develop' branch</text><rect fill="#FEFECE" filter="url(#f311ldilsqzx5)" height="62.3984" rx="12.5" ry="12.5" style="stroke: #A80036; stroke-width: 1.5;" width="166" x="71.5" y="318"/><text fill="#000000" font-family="sans-serif" font-size="12" lengthAdjust="spacingAndGlyphs" textLength="103" x="101" y="339.6016">Amend until static</text><text fill="#000000" font-family="sans-serif" font-size="12" lengthAdjust="spacingAndGlyphs" textLength="142" x="85.5" y="353.7344">checks in github indicate</text><text fill="#000000" font-family="sans-serif" font-size="12" lengthAdjust="spacingAndGlyphs" textLength="67" x="123" y="367.8672">PR looks ok</text><rect fill="#FEFECE" filter="url(#f311ldilsqzx5)" height="34.1328" rx="12.5" ry="12.5" style="stroke: #A80036; stroke-width: 1.5;" width="296" x="6.5" y="420"/><text fill="#000000" font-family="sans-serif" font-size="12" lengthAdjust="spacingAndGlyphs" textLength="276" x="16.5" y="441.6016">Make a request for someone to review the code</text><rect fill="#FEFECE" filter="url(#f311ldilsqzx5)" height="34.1328" rx="12.5" ry="12.5" style="stroke: #A80036; stroke-width: 1.5;" width="119" x="95" y="494"/><text fill="#000000" font-family="sans-serif" font-size="12" lengthAdjust="spacingAndGlyphs" textLength="99" x="105" y="515.6016">Pass code review</text><rect fill="#FEFECE" filter="url(#f311ldilsqzx5)" height="34.1328" rx="12.5" ry="12.5" style="stroke: #A80036; stroke-width: 1.5;" width="131" x="89" y="568"/><text fill="#000000" font-family="sans-serif" font-size="12" lengthAdjust="spacingAndGlyphs" textLength="111" x="99" y="589.6016">Merge into develop</text><rect fill="#FEFECE" filter="url(#f311ldilsqzx5)" height="34.1328" rx="12.5" ry="12.5" style="stroke: #A80036; stroke-width: 1.5;" width="213" x="48" y="642"/><text fill="#000000" font-family="sans-serif" font-size="12" lengthAdjust="spacingAndGlyphs" textLength="193" x="58" y="663.6016">Push snapshot releases (optional)</text><rect fill="#FEFECE" filter="url(#f311ldilsqzx5)" height="34.1328" rx="12.5" ry="12.5" style="stroke: #A80036; stroke-width: 1.5;" width="183" x="63" y="716"/><text fill="#000000" font-family="sans-serif" font-size="12" lengthAdjust="spacingAndGlyphs" textLength="163" x="73" y="737.6016">Merge into master (optional)</text><rect fill="#FEFECE" filter="url(#f311ldilsqzx5)" height="34.1328" rx="12.5" ry="12.5" style="stroke: #A80036; stroke-width: 1.5;" width="297" x="6" y="790"/><text fill="#000000" font-family="sans-serif" font-size="12" lengthAdjust="spacingAndGlyphs" textLength="277" x="16" y="811.6016">Promote selected snapshots into major releases</text><ellipse cx="154.5" cy="874" fill="none" filter="url(#f311ldilsqzx5)" rx="10" ry="10" style="stroke: #000000; stroke-width: 1.0;"/><ellipse cx="155" cy="874.5" fill="#000000" rx="6" ry="6" style="stroke: none; stroke-width: 1.0;"/><!--link start to Make feature branch \n feature/something from develop--><path d="M154.5,28.2894 C154.5,37.1851 154.5,50.4917 154.5,62.647 " fill="none" id="start-Make feature branch \n feature/something from develop" style="stroke: #A80036; stroke-width: 1.0;"/><polygon fill="#A80036" points="154.5,67.7696,158.5,58.7696,154.5,62.7696,150.5,58.7696,154.5,67.7696" style="stroke: #A80036; stroke-width: 1.0;"/><!--link Make feature branch \n feature/something from develop to Add features until satisfied--><path d="M154.5,116.3027 C154.5,127.1954 154.5,139.9596 154.5,150.6161 " fill="none" id="Make feature branch \n feature/something from develop-Add features until satisfied" style="stroke: #A80036; stroke-width: 1.0;"/><polygon fill="#A80036" points="154.5,155.6607,158.5,146.6607,154.5,150.6607,150.5,146.6607,154.5,155.6607" style="stroke: #A80036; stroke-width: 1.0;"/><!--link Add features until satisfied to Create pull request\n towards 'develop' branch--><path d="M154.5,190.178 C154.5,200.1653 154.5,213.023 154.5,224.5775 " fill="none" id="Add features until satisfied-Create pull request\n towards 'develop' branch" style="stroke: #A80036; stroke-width: 1.0;"/><polygon fill="#A80036" points="154.5,229.7796,158.5,220.7796,154.5,224.7796,150.5,220.7796,154.5,229.7796" style="stroke: #A80036; stroke-width: 1.0;"/><!--link Create pull request\n towards 'develop' branch to Amend until static \n checks in github indicate\n PR looks ok--><path d="M154.5,278.4649 C154.5,288.8579 154.5,301.1923 154.5,312.6175 " fill="none" id="Create pull request\n towards 'develop' branch-Amend until static \n checks in github indicate\n PR looks ok" style="stroke: #A80036; stroke-width: 1.0;"/><polygon fill="#A80036" points="154.5,317.7927,158.5,308.7927,154.5,312.7927,150.5,308.7927,154.5,317.7927" style="stroke: #A80036; stroke-width: 1.0;"/><!--link Amend until static \n checks in github indicate\n PR looks ok to Make a request for someone to review the code--><path d="M154.5,380.2733 C154.5,391.6318 154.5,404.2284 154.5,414.6606 " fill="none" id="Amend until static \n checks in github indicate\n PR looks ok-Make a request for someone to review the code" style="stroke: #A80036; stroke-width: 1.0;"/><polygon fill="#A80036" points="154.5,419.9006,158.5,410.9006,154.5,414.9006,150.5,410.9006,154.5,419.9006" style="stroke: #A80036; stroke-width: 1.0;"/><!--link Make a request for someone to review the code to Pass code review--><path d="M154.5,454.1631 C154.5,464.4368 154.5,477.6075 154.5,488.6831 " fill="none" id="Make a request for someone to review the code-Pass code review" style="stroke: #A80036; stroke-width: 1.0;"/><polygon fill="#A80036" points="154.5,493.93,158.5,484.93,154.5,488.93,150.5,484.93,154.5,493.93" style="stroke: #A80036; stroke-width: 1.0;"/><!--link Pass code review to Merge into develop--><path d="M154.5,528.1631 C154.5,538.4368 154.5,551.6075 154.5,562.6831 " fill="none" id="Pass code review-Merge into develop" style="stroke: #A80036; stroke-width: 1.0;"/><polygon fill="#A80036" points="154.5,567.93,158.5,558.93,154.5,562.93,150.5,558.93,154.5,567.93" style="stroke: #A80036; stroke-width: 1.0;"/><!--link Merge into develop to Push snapshot releases (optional)--><path d="M154.5,602.1631 C154.5,612.4368 154.5,625.6075 154.5,636.6831 " fill="none" id="Merge into develop-Push snapshot releases (optional)" style="stroke: #A80036; stroke-width: 1.0;"/><polygon fill="#A80036" points="154.5,641.93,158.5,632.93,154.5,636.93,150.5,632.93,154.5,641.93" style="stroke: #A80036; stroke-width: 1.0;"/><!--link Push snapshot releases (optional) to Merge into master (optional)--><path d="M154.5,676.1631 C154.5,686.4368 154.5,699.6075 154.5,710.6831 " fill="none" id="Push snapshot releases (optional)-Merge into master (optional)" style="stroke: #A80036; stroke-width: 1.0;"/><polygon fill="#A80036" points="154.5,715.93,158.5,706.93,154.5,710.93,150.5,706.93,154.5,715.93" style="stroke: #A80036; stroke-width: 1.0;"/><!--link Merge into master (optional) to Promote selected snapshots into major releases--><path d="M154.5,750.1631 C154.5,760.4368 154.5,773.6075 154.5,784.6831 " fill="none" id="Merge into master (optional)-Promote selected snapshots into major releases" style="stroke: #A80036; stroke-width: 1.0;"/><polygon fill="#A80036" points="154.5,789.93,158.5,780.93,154.5,784.93,150.5,780.93,154.5,789.93" style="stroke: #A80036; stroke-width: 1.0;"/><!--link Promote selected snapshots into major releases to end--><path d="M154.5,824.2542 C154.5,834.9518 154.5,848.5657 154.5,858.8464 " fill="none" id="Promote selected snapshots into major releases-end" style="stroke: #A80036; stroke-width: 1.0;"/><polygon fill="#A80036" points="154.5,863.8855,158.5,854.8855,154.5,858.8855,150.5,854.8855,154.5,863.8855" style="stroke: #A80036; stroke-width: 1.0;"/><!--
@startuml
(*) - -> "Make feature branch \n feature/something from develop"
- ->"Add features until satisfied"
- ->"Create pull request\n towards 'develop' branch"
- ->"Amend until static \n checks in github indicate\n PR looks ok"
- ->"Make a request for someone to review the code"
- ->"Pass code review"
- ->"Merge into develop"
- ->"Push snapshot releases (optional)"
- ->"Merge into master (optional)"
- ->"Promote selected snapshots into major releases"
- ->(*)
@enduml

PlantUML version 1.2019.03(Sun Mar 10 16:34:44 IST 2019)
(GPL source distribution)
Java Runtime: OpenJDK Runtime Environment
JVM: OpenJDK 64-Bit Server VM
Java Version: 11.0.2+7-LTS
Operating System: Mac OS X
OS Version: 10.14.4
Default Encoding: UTF-8
Language: en
Country: IN
--></g></svg>